<svg xmlns="http://www.w3.org/2000/svg" viewBox="0 0 395.95 380.14"><title>not-found</title><g id="a4ea8c9c-4e17-4968-b7e0-6b9589b2df33" data-name="Background Complete"><polygon points="343.24 36.21 348.58 37.09 343.24 37.97 342.36 43.31 341.48 37.97 336.14 37.09 341.48 36.21 342.36 30.87 343.24 36.21" fill="#ebebeb"/><polygon points="343.6 37.09 346.76 41.49 342.36 38.34 337.96 41.49 341.12 37.09 337.96 32.69 342.36 35.85 346.76 32.69 343.6 37.09" fill="#ebebeb"/><path d="M396.89,110.92a1.24,1.24,0,1,1-2.48,0,1.24,1.24,0,1,1,2.48,0Z" transform="translate(-53.29 -73.83)" fill="#e0e0e0"/><polygon points="380.69 242.85 386.03 243.73 380.69 244.61 379.81 249.95 378.93 244.61 373.59 243.73 378.93 242.85 379.81 237.5 380.69 242.85" fill="#ebebeb"/><polygon points="381.05 243.73 384.21 248.13 379.81 244.97 375.41 248.13 378.56 243.73 375.41 239.33 379.81 242.48 384.21 239.33 381.05 243.73" fill="#ebebeb"/><path d="M434.34,317.56a1.24,1.24,0,1,1-1.24-1.24A1.24,1.24,0,0,1,434.34,317.56Z" transform="translate(-53.29 -73.83)" fill="#e0e0e0"/><polygon points="84.61 319.84 89.95 320.72 84.61 321.6 83.73 326.94 82.85 321.6 77.51 320.72 82.85 319.84 83.73 314.5 84.61 319.84" fill="#ebebeb"/><polygon points="84.97 320.72 88.13 325.12 83.73 321.96 79.33 325.12 82.49 320.72 79.33 316.32 83.73 319.47 88.13 316.32 84.97 320.72" fill="#ebebeb"/><path d="M138.26,394.55a1.24,1.24,0,1,1-1.23-1.24A1.24,1.24,0,0,1,138.26,394.55Z" transform="translate(-53.29 -73.83)" fill="#e0e0e0"/><polygon points="275.85 14.13 281.19 15.01 275.85 15.89 274.97 21.24 274.09 15.89 268.74 15.01 274.09 14.13 274.97 8.79 275.85 14.13" fill="#ebebeb"/><polygon points="276.21 15.01 279.37 19.41 274.97 16.26 270.57 19.41 273.72 15.01 270.57 10.61 274.97 13.77 279.37 10.61 276.21 15.01" fill="#ebebeb"/><path d="M329.5,88.84a1.24,1.24,0,0,1-2.48,0,1.24,1.24,0,0,1,2.48,0Z" transform="translate(-53.29 -73.83)" fill="#e0e0e0"/><polygon points="317.8 106.44 323.15 107.32 317.8 108.2 316.92 113.54 316.04 108.2 310.7 107.32 316.04 106.44 316.92 101.1 317.8 106.44" fill="#ebebeb"/><polygon points="318.17 107.32 321.32 111.72 316.92 108.56 312.52 111.72 315.68 107.32 312.52 102.92 316.92 106.08 321.32 102.92 318.17 107.32" fill="#ebebeb"/><path d="M371.46,181.15a1.24,1.24,0,1,1-1.24-1.24A1.25,1.25,0,0,1,371.46,181.15Z" transform="translate(-53.29 -73.83)" fill="#e0e0e0"/><polygon points="317.17 309.63 322.52 310.51 317.17 311.39 316.29 316.73 315.41 311.39 310.07 310.51 315.41 309.63 316.29 304.29 317.17 309.63" fill="#ebebeb"/><polygon points="317.54 310.51 320.69 314.91 316.29 311.75 311.89 314.91 315.05 310.51 311.89 306.11 316.29 309.26 320.69 306.11 317.54 310.51" fill="#ebebeb"/><path d="M370.83,384.34a1.24,1.24,0,0,1-2.48,0,1.24,1.24,0,0,1,2.48,0Z" transform="translate(-53.29 -73.83)" fill="#e0e0e0"/><polygon points="6.61 195.26 11.14 196.01 6.61 196.75 5.87 201.28 5.12 196.75 0.59 196.01 5.12 195.26 5.87 190.73 6.61 195.26" fill="#ebebeb"/><polygon points="6.92 196.01 9.6 199.74 5.87 197.06 2.14 199.74 4.81 196.01 2.14 192.28 5.87 194.95 9.6 192.28 6.92 196.01" fill="#ebebeb"/><path d="M60.21,269.84a1.05,1.05,0,1,1-1.05-1A1,1,0,0,1,60.21,269.84Z" transform="translate(-53.29 -73.83)" fill="#e0e0e0"/><polygon points="335.77 198.63 340.3 199.38 335.77 200.13 335.02 204.66 334.28 200.13 329.75 199.38 334.28 198.63 335.02 194.11 335.77 198.63" fill="#ebebeb"/><polygon points="336.08 199.38 338.75 203.11 335.02 200.44 331.29 203.11 333.97 199.38 331.29 195.65 335.02 198.33 338.75 195.65 336.08 199.38" fill="#ebebeb"/><circle cx="335.02" cy="199.38" r="1.05" fill="#e0e0e0"/><polygon points="384.08 107.56 388.61 108.3 384.08 109.05 383.34 113.58 382.59 109.05 378.06 108.3 382.59 107.56 383.34 103.03 384.08 107.56" fill="#ebebeb"/><polygon points="384.39 108.3 387.07 112.03 383.34 109.36 379.61 112.03 382.28 108.3 379.61 104.57 383.34 107.25 387.07 104.57 384.39 108.3" fill="#ebebeb"/><circle cx="383.34" cy="108.3" r="1.05" fill="#e0e0e0"/><polygon points="69.35 17.06 73.88 17.81 69.35 18.55 68.61 23.08 67.86 18.55 63.33 17.81 67.86 17.06 68.61 12.54 69.35 17.06" fill="#ebebeb"/><polygon points="69.66 17.81 72.34 21.54 68.61 18.86 64.88 21.54 67.55 17.81 64.88 14.08 68.61 16.75 72.34 14.08 69.66 17.81" fill="#ebebeb"/><circle cx="68.61" cy="17.81" r="1.05" fill="#e0e0e0"/><polygon points="98.31 224.13 102.84 224.88 98.31 225.63 97.57 230.15 96.82 225.63 92.29 224.88 96.82 224.13 97.57 219.6 98.31 224.13" fill="#ebebeb"/><polygon points="98.62 224.88 101.3 228.61 97.57 225.93 93.84 228.61 96.51 224.88 93.84 221.15 97.57 223.82 101.3 221.15 98.62 224.88" fill="#ebebeb"/><circle cx="97.57" cy="224.88" r="1.05" fill="#e0e0e0"/><polygon points="194.17 305.48 198.7 306.22 194.17 306.97 193.43 311.5 192.68 306.97 188.15 306.22 192.68 305.48 193.43 300.95 194.17 305.48" fill="#ebebeb"/><polygon points="194.48 306.22 197.16 309.95 193.43 307.28 189.7 309.95 192.37 306.22 189.7 302.49 193.43 305.17 197.16 302.49 194.48 306.22" fill="#ebebeb"/><path d="M247.77,380.05a1.05,1.05,0,1,1-1.05-1.05A1,1,0,0,1,247.77,380.05Z" transform="translate(-53.29 -73.83)" fill="#e0e0e0"/><polygon points="241.13 95.48 245.66 96.22 241.13 96.97 240.39 101.5 239.64 96.97 235.11 96.22 239.64 95.48 240.39 90.95 241.13 95.48" fill="#ebebeb"/><polygon points="241.44 96.22 244.12 99.95 240.39 97.28 236.66 99.95 239.33 96.22 236.66 92.49 240.39 95.17 244.12 92.49 241.44 96.22" fill="#ebebeb"/><path d="M294.73,170.05a1.05,1.05,0,1,1-1.05-1.05A1,1,0,0,1,294.73,170.05Z" transform="translate(-53.29 -73.83)" fill="#e0e0e0"/><polygon points="34.3 73.05 39.65 73.92 34.3 74.81 33.42 80.15 32.54 74.81 27.2 73.92 32.54 73.05 33.42 67.7 34.3 73.05" fill="#ebebeb"/><polygon points="34.67 73.92 37.82 78.33 33.42 75.17 29.02 78.33 32.18 73.92 29.02 69.53 33.42 72.68 37.82 69.53 34.67 73.92" fill="#ebebeb"/><path d="M88,147.75a1.24,1.24,0,1,1-1.24-1.23A1.24,1.24,0,0,1,88,147.75Z" transform="translate(-53.29 -73.83)" fill="#e0e0e0"/><polygon points="160.88 5.34 166.22 6.22 160.88 7.1 160 12.45 159.12 7.1 153.77 6.22 159.12 5.34 160 0 160.88 5.34" fill="#ebebeb"/><polygon points="161.24 6.22 164.4 10.62 160 7.47 155.6 10.62 158.75 6.22 155.6 1.82 160 4.98 164.4 1.82 161.24 6.22" fill="#ebebeb"/><path d="M214.53,80.05a1.24,1.24,0,0,1-2.48,0,1.24,1.24,0,0,1,2.48,0Z" transform="translate(-53.29 -73.83)" fill="#e0e0e0"/><polygon points="126.76 116.95 132.1 117.83 126.76 118.71 125.88 124.06 125 118.71 119.66 117.83 125 116.95 125.88 111.61 126.76 116.95" fill="#ebebeb"/><polygon points="127.13 117.83 130.28 122.23 125.88 119.08 121.48 122.23 124.64 117.83 121.48 113.43 125.88 116.59 130.28 113.43 127.13 117.83" fill="#ebebeb"/><path d="M180.41,191.66a1.24,1.24,0,1,1-1.23-1.24A1.23,1.23,0,0,1,180.41,191.66Z" transform="translate(-53.29 -73.83)" fill="#e0e0e0"/><polygon points="44.38 285.87 49.73 286.75 44.38 287.63 43.5 292.97 42.62 287.63 37.28 286.75 42.62 285.87 43.5 280.53 44.38 285.87" fill="#ebebeb"/><polygon points="44.75 286.75 47.9 291.15 43.5 288 39.1 291.15 42.26 286.75 39.1 282.35 43.5 285.51 47.9 282.35 44.75 286.75" fill="#ebebeb"/><path d="M98,360.58a1.24,1.24,0,1,1-1.24-1.24A1.24,1.24,0,0,1,98,360.58Z" transform="translate(-53.29 -73.83)" fill="#e0e0e0"/><polygon points="260.24 219.6 265.58 220.48 260.24 221.36 259.36 226.7 258.48 221.36 253.14 220.48 258.48 219.6 259.36 214.26 260.24 219.6" fill="#ebebeb"/><polygon points="260.61 220.48 263.76 224.88 259.36 221.72 254.96 224.88 258.12 220.48 254.96 216.08 259.36 219.24 263.76 216.08 260.61 220.48" fill="#ebebeb"/><path d="M313.9,294.31a1.24,1.24,0,0,1-2.48,0,1.24,1.24,0,1,1,2.48,0Z" transform="translate(-53.29 -73.83)" fill="#e0e0e0"/><circle cx="167.79" cy="110.92" r="17.02" transform="translate(-21.87 184.95) rotate(-80.78)" fill="#f5f5f5"/><circle cx="420.57" cy="233.59" r="17.02" transform="translate(43.3 515.41) rotate(-76.72)" fill="#f5f5f5"/><circle cx="229.74" cy="329.66" r="17.02" fill="#f5f5f5"/><circle cx="356.68" cy="122.17" r="9.75" transform="translate(102.53 367.42) rotate(-76.72)" fill="#f5f5f5"/><circle cx="191.51" cy="241.33" r="9.75" fill="#f5f5f5"/><circle cx="100.9" cy="281.9" r="9.75" transform="translate(-223.08 80.09) rotate(-45)" fill="#f5f5f5"/></g><g id="a876153b-493d-4d67-a6b0-cdfc2a2761c1" data-name="Background Simple"><path d="M64.58,134.45C97,65.5,211.94,75.23,256.31,123.71s58.79,79.56,98.82,61.45,91.06-13.27,94,44.26S405.14,355,330.72,375.1s-74.41,91.34-172.92,77c-53.71-7.84-54.93-65.94-47.35-114S27,214.4,64.58,134.45Z" transform="translate(-53.29 -73.83)" fill="#407bff"/><path d="M64.58,134.45C97,65.5,211.94,75.23,256.31,123.71s58.79,79.56,98.82,61.45,91.06-13.27,94,44.26S405.14,355,330.72,375.1s-74.41,91.34-172.92,77c-53.71-7.84-54.93-65.94-47.35-114S27,214.4,64.58,134.45Z" transform="translate(-53.29 -73.83)" fill="#fff" opacity="0.9"/></g><g id="ab591d79-8be0-488c-9c01-e844b73ca6e8" data-name="Space"><path d="M235.41,79.3c84-2.47,193.16,82.18,193,205.61-.07,66.7-102,168.48-204.56,155.14S73.08,340.28,66.36,270.34,108.14,83.05,235.41,79.3Z" transform="translate(-53.29 -73.83)" fill="#263238"/><path d="M275.24,111.34c-56.66-8.94-112.82,22.35-111.32,29.37s14.83,1.63,22.8,1.56-34.21,28.35-38.44,44.6,40.07-32.18,80-40,22.6-11.63,19.81-18,39.6-13.61,72.6,3.05,52.61,40.68,61.69,55C382.41,186.87,360.53,124.79,275.24,111.34Z" transform="translate(-53.29 -73.83)" fill="#fff" opacity="0.1"/><path d="M260.27,182.46c2.67-13.38,36.8-15.73,62.26,1.75s29.28,36.47,23.65,35.86,23.34,15.1,33.64,52.87-.58,81.61-33.64,106.11c0,0,21.73-22.39,17.8-63.3s-50.43-49.1-59.88-60.3-2.08-28,15.07-30.7,2.59-23.69-16-24.25-33,3.89-35.55.35-49.33,4.54-58.63,40.32-22.73,25.41-14.43,0,62.41-50.62,72.54-52.52S259.65,185.57,260.27,182.46Z" transform="translate(-53.29 -73.83)" fill="#fff" opacity="0.1"/><path d="M148,237.41c18.67-8.81-1.2,37.25,4.69,80.82s59,79,97.31,74.78,62.05-56,32.52-75.72c0,0,30,1.49,36.65,32.54s-9,58.94-31.77,60.55-34.68,16.29-43.25,16.07,3.11-4.73-1.68-10.91-38.91-.63-80.13-20-50.07-39.24-57.78-67,8.92,4.37,17.48-.9.67-19.14,1.69-32.7,7-26.54,15.1-17.49S139,241.65,148,237.41Z" transform="translate(-53.29 -73.83)" fill="#fff" opacity="0.1"/></g><g id="ad770c48-3f35-44ea-a4c3-a68e9992e852" data-name="Stars"><polygon points="71.01 267.7 71.91 266.46 70.66 267.35 70.41 265.84 70.17 267.35 68.92 266.46 69.81 267.7 68.3 267.95 69.81 268.2 68.92 269.44 70.17 268.55 70.41 270.06 70.66 268.55 71.91 269.44 71.01 268.2 72.53 267.95 71.01 267.7" fill="#263238"/><polygon points="338.33 239 339.22 237.75 337.98 238.65 337.73 237.14 337.48 238.65 336.24 237.75 337.13 239 335.62 239.25 337.13 239.5 336.24 240.74 337.48 239.85 337.73 241.36 337.98 239.85 339.22 240.74 338.33 239.5 339.84 239.25 338.33 239" fill="#263238"/><polygon points="206.08 288.37 206.98 287.12 205.73 288.01 205.48 286.5 205.23 288.01 203.99 287.12 204.88 288.36 203.37 288.61 204.88 288.86 203.99 290.11 205.23 289.21 205.48 290.73 205.73 289.21 206.98 290.11 206.08 288.86 207.59 288.61 206.08 288.37" fill="#263238"/><polygon points="80.6 230.99 82.14 228.85 79.99 230.39 79.56 227.78 79.14 230.39 76.99 228.85 78.53 230.99 75.93 231.42 78.53 231.85 76.99 234 79.14 232.46 79.56 235.06 79.99 232.46 82.14 234 80.6 231.85 83.2 231.42 80.6 230.99" fill="#263238"/><polygon points="46.2 163.39 47.74 161.25 45.6 162.78 45.17 160.18 44.74 162.78 42.59 161.25 44.13 163.39 41.53 163.82 44.13 164.25 42.59 166.39 44.74 164.85 45.17 167.45 45.6 164.85 47.74 166.39 46.2 164.25 48.8 163.82 46.2 163.39" fill="#263238"/><polygon points="222.37 39.04 223.91 36.89 221.76 38.43 221.34 35.83 220.91 38.43 218.76 36.89 220.3 39.04 217.7 39.47 220.3 39.9 218.76 42.04 220.91 40.5 221.34 43.1 221.76 40.5 223.91 42.04 222.37 39.9 224.97 39.47 222.37 39.04" fill="#263238"/><polygon points="253.96 163.14 255.5 160.99 253.35 162.53 252.92 159.93 252.49 162.53 250.35 160.99 251.89 163.14 249.28 163.57 251.89 164 250.35 166.14 252.49 164.6 252.92 167.2 253.35 164.6 255.5 166.14 253.96 164 256.56 163.57 253.96 163.14" fill="#263238"/><polygon points="175.24 43.28 176.78 41.14 174.63 42.67 174.21 40.07 173.78 42.67 171.63 41.14 173.17 43.28 170.57 43.71 173.17 44.14 171.63 46.28 173.78 44.74 174.21 47.35 174.63 44.74 176.78 46.28 175.24 44.14 177.84 43.71 175.24 43.28" fill="#263238"/><polygon points="179.38 244.46 182.01 240.79 178.34 243.42 177.61 238.97 176.87 243.42 173.21 240.79 175.84 244.46 171.38 245.19 175.84 245.92 173.21 249.59 176.87 246.96 177.61 251.41 178.34 246.96 182.01 249.59 179.38 245.92 183.83 245.19 179.38 244.46" fill="#263238"/><polygon points="308.82 70.36 304.37 69.63 307 65.96 303.33 68.59 302.6 64.14 301.86 68.59 298.19 65.96 300.82 69.63 296.37 70.36 300.82 71.09 298.19 74.76 301.86 72.13 302.6 76.58 303.33 72.13 307 74.76 304.37 71.09 308.82 70.36" fill="#263238"/><polygon points="168.89 99.67 171.52 96.01 167.85 98.64 167.12 94.19 166.38 98.64 162.72 96.01 165.34 99.67 160.89 100.41 165.34 101.14 162.72 104.81 166.38 102.18 167.12 106.63 167.85 102.18 171.52 104.81 168.89 101.14 173.34 100.41 168.89 99.67" fill="#263238"/><polygon points="299.07 276.23 301.7 272.56 298.03 275.19 297.3 270.74 296.56 275.19 292.9 272.56 295.53 276.23 291.08 276.96 295.53 277.7 292.9 281.36 296.56 278.73 297.3 283.19 298.03 278.73 301.7 281.36 299.07 277.7 303.52 276.96 299.07 276.23" fill="#263238"/><polygon points="93.96 82.82 89.51 82.08 92.14 78.42 88.47 81.05 87.74 76.6 87.01 81.05 83.34 78.42 85.97 82.08 81.52 82.82 85.97 83.55 83.34 87.22 87.01 84.59 87.74 89.04 88.47 84.59 92.14 87.22 89.51 83.55 93.96 82.82" fill="#263238"/><polygon points="70.71 267.65 72.53 267.95 70.71 268.25 70.41 270.06 70.11 268.25 68.3 267.95 70.11 267.65 70.41 265.84 70.71 267.65" fill="#fff" opacity="0.2"/><polygon points="70.84 267.95 71.91 269.44 70.41 268.37 68.92 269.44 69.99 267.95 68.92 266.46 70.41 267.53 71.91 266.46 70.84 267.95" fill="#fff" opacity="0.2"/><path d="M124.13,341.78a.42.42,0,1,1-.42-.42A.42.42,0,0,1,124.13,341.78Z" transform="translate(-53.29 -73.83)" fill="#fff"/><polygon points="338.03 238.95 339.84 239.25 338.03 239.55 337.73 241.36 337.43 239.55 335.62 239.25 337.43 238.95 337.73 237.14 338.03 238.95" fill="#fff" opacity="0.2"/><polygon points="338.15 239.25 339.22 240.74 337.73 239.67 336.24 240.74 337.31 239.25 336.24 237.75 337.73 238.82 339.22 237.75 338.15 239.25" fill="#fff" opacity="0.2"/><path d="M391.44,313.08a.42.42,0,0,1-.42.42.42.42,0,1,1,0-.84A.42.42,0,0,1,391.44,313.08Z" transform="translate(-53.29 -73.83)" fill="#fff"/><polygon points="205.78 288.31 207.59 288.61 205.78 288.91 205.48 290.73 205.18 288.91 203.37 288.61 205.18 288.31 205.48 286.5 205.78 288.31" fill="#fff" opacity="0.2"/><polygon points="205.91 288.61 206.98 290.11 205.48 289.04 203.99 290.11 205.06 288.61 203.99 287.12 205.48 288.19 206.98 287.12 205.91 288.61" fill="#fff" opacity="0.2"/><path d="M259.2,362.44a.42.42,0,0,1-.84,0,.42.42,0,1,1,.84,0Z" transform="translate(-53.29 -73.83)" fill="#fff"/><polygon points="80.08 230.91 83.2 231.42 80.08 231.94 79.56 235.06 79.05 231.94 75.93 231.42 79.05 230.91 79.56 227.78 80.08 230.91" fill="#fff" opacity="0.2"/><polygon points="80.29 231.42 82.14 234 79.56 232.15 76.99 234 78.84 231.42 76.99 228.85 79.56 230.69 82.14 228.85 80.29 231.42" fill="#fff" opacity="0.2"/><circle cx="79.57" cy="231.42" r="0.72" fill="#fff"/><polygon points="45.68 163.3 48.8 163.82 45.68 164.33 45.17 167.45 44.65 164.33 41.53 163.82 44.65 163.3 45.17 160.18 45.68 163.3" fill="#fff" opacity="0.2"/><polygon points="45.9 163.82 47.74 166.39 45.17 164.54 42.59 166.39 44.44 163.82 42.59 161.25 45.17 163.09 47.74 161.25 45.9 163.82" fill="#fff" opacity="0.2"/><path d="M99.19,237.65a.73.73,0,0,1-.73.72.72.72,0,0,1-.72-.72.73.73,0,0,1,.72-.73A.73.73,0,0,1,99.19,237.65Z" transform="translate(-53.29 -73.83)" fill="#fff"/><polygon points="221.85 38.95 224.97 39.47 221.85 39.98 221.34 43.1 220.82 39.98 217.7 39.47 220.82 38.95 221.34 35.83 221.85 38.95" fill="#fff" opacity="0.2"/><polygon points="222.06 39.47 223.91 42.04 221.34 40.19 218.76 42.04 220.61 39.47 218.76 36.89 221.34 38.74 223.91 36.89 222.06 39.47" fill="#fff" opacity="0.2"/><circle cx="221.34" cy="39.47" r="0.72" fill="#fff"/><polygon points="253.44 163.05 256.56 163.57 253.44 164.08 252.92 167.2 252.41 164.08 249.28 163.57 252.41 163.05 252.92 159.93 253.44 163.05" fill="#fff" opacity="0.2"/><polygon points="253.65 163.57 255.49 166.14 252.92 164.29 250.35 166.14 252.19 163.57 250.35 160.99 252.92 162.84 255.49 160.99 253.65 163.57" fill="#fff" opacity="0.2"/><circle cx="252.92" cy="163.57" r="0.72" fill="#fff"/><polygon points="174.72 43.19 177.84 43.71 174.72 44.22 174.21 47.35 173.69 44.22 170.57 43.71 173.69 43.19 174.21 40.07 174.72 43.19" fill="#fff" opacity="0.2"/><polygon points="174.93 43.71 176.78 46.28 174.21 44.44 171.63 46.28 173.48 43.71 171.63 41.14 174.21 42.98 176.78 41.14 174.93 43.71" fill="#fff" opacity="0.2"/><circle cx="174.21" cy="43.71" r="0.72" fill="#fff"/><polygon points="178.49 244.31 183.83 245.19 178.49 246.07 177.61 251.41 176.73 246.07 171.38 245.19 176.73 244.31 177.61 238.97 178.49 244.31" fill="#fff" opacity="0.2"/><polygon points="178.85 245.19 182.01 249.59 177.61 246.44 173.21 249.59 176.36 245.19 173.21 240.79 177.61 243.95 182.01 240.79 178.85 245.19" fill="#fff" opacity="0.2"/><path d="M232.14,319a1.24,1.24,0,1,1-1.24-1.24A1.24,1.24,0,0,1,232.14,319Z" transform="translate(-53.29 -73.83)" fill="#fff"/><polygon points="303.48 69.48 308.82 70.36 303.48 71.24 302.6 76.58 301.72 71.24 296.37 70.36 301.72 69.48 302.6 64.14 303.48 69.48" fill="#fff" opacity="0.2"/><polygon points="303.84 70.36 307 74.76 302.6 71.61 298.19 74.76 301.35 70.36 298.19 65.96 302.6 69.12 307 65.96 303.84 70.36" fill="#fff" opacity="0.2"/><path d="M357.13,144.19a1.24,1.24,0,1,1-1.24-1.24A1.25,1.25,0,0,1,357.13,144.19Z" transform="translate(-53.29 -73.83)" fill="#fff"/><polygon points="168 99.53 173.34 100.41 168 101.29 167.12 106.63 166.24 101.29 160.89 100.41 166.24 99.53 167.12 94.19 168 99.53" fill="#fff" opacity="0.2"/><polygon points="168.36 100.41 171.52 104.81 167.12 101.65 162.72 104.81 165.87 100.41 162.72 96.01 167.12 99.16 171.52 96.01 168.36 100.41" fill="#fff" opacity="0.2"/><path d="M221.65,174.24a1.24,1.24,0,1,1-1.24-1.24A1.25,1.25,0,0,1,221.65,174.24Z" transform="translate(-53.29 -73.83)" fill="#fff"/><polygon points="298.18 276.08 303.52 276.96 298.18 277.84 297.3 283.19 296.42 277.84 291.08 276.96 296.42 276.08 297.3 270.74 298.18 276.08" fill="#fff" opacity="0.2"/><polygon points="298.54 276.96 301.7 281.36 297.3 278.21 292.9 281.36 296.05 276.96 292.9 272.56 297.3 275.72 301.7 272.56 298.54 276.96" fill="#fff" opacity="0.2"/><path d="M351.83,350.79a1.24,1.24,0,0,1-2.48,0,1.24,1.24,0,0,1,2.48,0Z" transform="translate(-53.29 -73.83)" fill="#fff"/><polygon points="88.62 81.94 93.96 82.82 88.62 83.7 87.74 89.04 86.86 83.7 81.52 82.82 86.86 81.94 87.74 76.6 88.62 81.94" fill="#fff" opacity="0.2"/><polygon points="88.98 82.82 92.14 87.22 87.74 84.06 83.34 87.22 86.5 82.82 83.34 78.42 87.74 81.57 92.14 78.42 88.98 82.82" fill="#fff" opacity="0.2"/><path d="M142.27,156.65a1.24,1.24,0,1,1-1.23-1.24A1.24,1.24,0,0,1,142.27,156.65Z" transform="translate(-53.29 -73.83)" fill="#fff"/><polygon points="226.77 337.53 222.31 336.8 224.94 333.13 221.28 335.76 220.54 331.31 219.81 335.76 216.14 333.13 218.77 336.8 214.32 337.53 218.77 338.26 216.14 341.93 219.81 339.3 220.54 343.75 221.28 339.3 224.94 341.93 222.31 338.26 226.77 337.53" fill="#263238"/><polygon points="221.42 336.65 226.77 337.53 221.42 338.41 220.54 343.75 219.66 338.41 214.32 337.53 219.66 336.65 220.54 331.31 221.42 336.65" fill="#fff" opacity="0.2"/><polygon points="221.79 337.53 224.94 341.93 220.54 338.77 216.14 341.93 219.3 337.53 216.14 333.13 220.54 336.28 224.94 333.13 221.79 337.53" fill="#fff" opacity="0.2"/><path d="M275.08,411.36a1.24,1.24,0,0,1-2.48,0,1.24,1.24,0,1,1,2.48,0Z" transform="translate(-53.29 -73.83)" fill="#fff"/><polygon points="30.99 217.67 31.88 216.43 30.64 217.32 30.39 215.81 30.14 217.32 28.89 216.43 29.79 217.67 28.28 217.92 29.79 218.17 28.89 219.41 30.14 218.52 30.39 220.03 30.64 218.52 31.88 219.41 30.99 218.17 32.5 217.92 30.99 217.67" fill="#263238"/><polygon points="30.69 217.62 32.5 217.92 30.69 218.22 30.39 220.03 30.09 218.22 28.28 217.92 30.09 217.62 30.39 215.81 30.69 217.62" fill="#fff" opacity="0.2"/><polygon points="30.81 217.92 31.88 219.41 30.39 218.34 28.89 219.41 29.97 217.92 28.89 216.43 30.39 217.5 31.88 216.43 30.81 217.92" fill="#fff" opacity="0.2"/><path d="M84.1,291.75a.42.42,0,0,1-.42.42.42.42,0,0,1,0-.84A.42.42,0,0,1,84.1,291.75Z" transform="translate(-53.29 -73.83)" fill="#fff"/><polygon points="151.06 193.66 151.96 192.41 150.71 193.3 150.46 191.79 150.22 193.3 148.97 192.41 149.86 193.66 148.35 193.9 149.86 194.15 148.97 195.4 150.22 194.5 150.46 196.01 150.71 194.5 151.96 195.4 151.06 194.15 152.58 193.9 151.06 193.66" fill="#263238"/><polygon points="150.76 193.6 152.58 193.9 150.76 194.2 150.46 196.01 150.16 194.2 148.35 193.9 150.16 193.6 150.46 191.79 150.76 193.6" fill="#fff" opacity="0.2"/><polygon points="150.89 193.9 151.96 195.4 150.46 194.33 148.97 195.4 150.04 193.9 148.97 192.41 150.46 193.48 151.96 192.41 150.89 193.9" fill="#fff" opacity="0.2"/><path d="M204.18,267.73a.42.42,0,1,1-.84,0,.42.42,0,1,1,.84,0Z" transform="translate(-53.29 -73.83)" fill="#fff"/><polygon points="110.04 139.62 110.93 138.38 109.69 139.27 109.44 137.76 109.19 139.27 107.94 138.38 108.84 139.62 107.33 139.87 108.84 140.12 107.94 141.36 109.19 140.47 109.44 141.98 109.69 140.47 110.93 141.36 110.04 140.12 111.55 139.87 110.04 139.62" fill="#263238"/><polygon points="109.74 139.57 111.55 139.87 109.74 140.17 109.44 141.98 109.14 140.17 107.33 139.87 109.14 139.57 109.44 137.76 109.74 139.57" fill="#fff" opacity="0.2"/><polygon points="109.86 139.87 110.93 141.36 109.44 140.29 107.94 141.36 109.02 139.87 107.94 138.38 109.44 139.45 110.93 138.38 109.86 139.87" fill="#fff" opacity="0.2"/><path d="M163.15,213.7a.42.42,0,0,1-.42.42.42.42,0,1,1,0-.84A.42.42,0,0,1,163.15,213.7Z" transform="translate(-53.29 -73.83)" fill="#fff"/></g><g id="a3b4b5ad-1ba6-46c7-ab6c-f4a948ef8d3b" data-name="Planets"><circle cx="99.58" cy="38.24" r="12.72" fill="#407bff"/><circle cx="99.58" cy="38.24" r="12.72" fill="#fff" opacity="0.2"/><path d="M140.19,113c1.58-.76,2.35-1.38,2.2-.52a9.11,9.11,0,0,0,0,2.25s.26.5,1,.28.71-.33,1-.33,2.48.05,1.82.88-.39,1.2-1,1.37-.83,1-.88,1.16a4.29,4.29,0,0,1-.65.71l-1.38.53a12.48,12.48,0,0,0,1.48,1.78,11.69,11.69,0,0,0,1,.89,2.71,2.71,0,0,1,1.21-.4c.71,0,.82.39,1.17.53s.31,0,.31,0,.33.41.69.22a6.23,6.23,0,0,1,1.84,0c.22,0,1.21-.44,1.65-.12s.55.23.6.62a3.08,3.08,0,0,1-.56,1.92,12.39,12.39,0,0,0,4-.28c-.53-.32-.28-2.36-.72-3.24s-.44-1.1-.28-1.48.5,0,.77,0a1,1,0,0,0,.83-.94,6.35,6.35,0,0,1,.27-1.26s.49-.93.72-.93a3.72,3.72,0,0,0,1.1-.06c.21-.11.21-.27.32-.56s.17-1.59-.11-1.53a1.82,1.82,0,0,1-.82-.22,6.3,6.3,0,0,0-1-.2c-.16,0-.22-.51-.22-.51s1-.61,1-.83-.38-.27-.43-.93.49-.66,1.09-.54,0,.26,0,.78.06.47.72,0,.49,0,.66,0a5.87,5.87,0,0,1,1,.17s-.06,1.35,0,2.72,2.08.06,2.69-.44c.29-.23,1.14-.12,1.92.28a12.68,12.68,0,0,0-2-9.93.14.14,0,0,1-.15,0c-.24-.11-1,.11-1.15,0s-.88.16-1.24,0a1.35,1.35,0,0,1-.66-1.18,7.06,7.06,0,0,0-.58-2c-.09-.24-.1-.35,0-.38a12.75,12.75,0,0,0-10.26-1.33c.47.8.82,1.71.33,2.11-1,.77-.43,1.42.24,2a.86.86,0,0,1,0,1.37c-.21.22-.6.77-.24,1s1.15.6.59.93-.23,1.15-1.17.44-.61-1.37-1.32-1.37-.82.82-1.76,1.1-1,.22-1.26.1-.27-.82-.88-1.42a.85.85,0,0,0-1.38.16c-.1.28-.28,1.56,0,1.72s0,1-.6,1.2-1.09-.71-1.29-.14a.49.49,0,0,0,0,.14s0,0,0,.06A12.39,12.39,0,0,0,140.19,113Zm13.09,6.18c-.88.22,0,0-.92-1s.52-.33.52-.33a12.81,12.81,0,0,0,.4-1.54c.11-.66.93,0,1.39,0s.92.66.38,1.54c0,0,0,.55-.38.44S154.16,118.91,153.28,119.13Zm-.4,1.49c.26-.17.89.22.79.93l-.83.22a4.09,4.09,0,0,1-.79-.71C151.81,120.74,152.62,120.78,152.88,120.62Zm-6.75-9.79c0-.55.17-1,.61-1,.71-.17.88.5,1.51.56s.36,1.73.36,1.73.22.85-.91.58-1.73-.06-1.84-.47S146.13,111.38,146.13,110.83Z" transform="translate(-53.29 -73.83)" fill="#fff" opacity="0.5"/><path d="M173.15,106.73a1.94,1.94,0,1,1-1.93-1.93A1.93,1.93,0,0,1,173.15,106.73Z" transform="translate(-53.29 -73.83)" fill="#407bff" style="isolation:isolate"/><path d="M173.15,106.73a1.94,1.94,0,1,1-1.93-1.93A1.93,1.93,0,0,1,173.15,106.73Z" transform="translate(-53.29 -73.83)" fill="#fff" opacity="0.6"/><circle cx="116.97" cy="33.57" r="0.39" opacity="0.1"/><path d="M172.14,106.62a.07.07,0,0,1-.07.07.07.07,0,1,1,0-.14A.07.07,0,0,1,172.14,106.62Z" transform="translate(-53.29 -73.83)" opacity="0.1"/><path d="M171.07,108.18a.08.08,0,0,1-.07.07.07.07,0,1,1,0-.14A.08.08,0,0,1,171.07,108.18Z" transform="translate(-53.29 -73.83)" opacity="0.1"/><path d="M171.76,105.12a.08.08,0,1,1-.15,0,.08.08,0,0,1,.07-.07A.08.08,0,0,1,171.76,105.12Z" transform="translate(-53.29 -73.83)" opacity="0.1"/><path d="M173,106.81a.08.08,0,0,1-.08.07.07.07,0,0,1-.07-.07.08.08,0,0,1,.07-.08A.09.09,0,0,1,173,106.81Z" transform="translate(-53.29 -73.83)" opacity="0.1"/><path d="M170,106.2a.07.07,0,0,1-.07.07.07.07,0,1,1,0-.14A.07.07,0,0,1,170,106.2Z" transform="translate(-53.29 -73.83)" opacity="0.1"/><path d="M171,105.66a.25.25,0,0,1-.25.25.25.25,0,0,1,0-.5A.25.25,0,0,1,171,105.66Z" transform="translate(-53.29 -73.83)" opacity="0.1"/><path d="M172.39,107.93a.25.25,0,1,1-.25-.25A.25.25,0,0,1,172.39,107.93Z" transform="translate(-53.29 -73.83)" opacity="0.1"/><path d="M426.64,251.2A8.23,8.23,0,1,1,420.4,261,8.23,8.23,0,0,1,426.64,251.2Z" transform="translate(-53.29 -73.83)" fill="#407bff" style="isolation:isolate"/><path d="M426.64,251.2A8.23,8.23,0,1,1,420.4,261,8.23,8.23,0,0,1,426.64,251.2Z" transform="translate(-53.29 -73.83)" fill="#fff" opacity="0.5"/><path d="M435.81,255.61c-.15.24-.28-.09-.81.18a4.57,4.57,0,0,1-1.64.39l-.12.23c-.11.24-1.12-.15-1.12-.54s0,0,.78-.23,0,0,.07-.56-.22-.31-.54-.7a.52.52,0,0,0-.73-.1c-.24.14-.21.41-.44.47s-.13.2-.23.27-.26,0-.39,0-.3-.11-.38,0-.06.14-.08.2a1.15,1.15,0,0,1-.26,0c-.06,0-.13-.08-.13-.13a.25.25,0,0,1,0-.1,1,1,0,0,1,.17-.27.26.26,0,0,1,.29-.08.27.27,0,0,0-.08-.26h.32c.08,0,.31-.66.33-.76a.24.24,0,0,0-.11-.21c-.09-.05-.2,0-.31,0s-.34-.31-.55-.28a.52.52,0,0,0-.15.07l-.25.18a.31.31,0,0,0-.11.08.9.9,0,0,0,0,.16.13.13,0,0,1-.09.1c.19,0-.07.19-.11.2-.2.07-.59-.07-.82-.09a.16.16,0,0,1-.12,0,.25.25,0,0,1,0-.09c-.06-.14-.11-.29-.16-.43s-.16-.65.09-.79.53,0,.61-.26a.18.18,0,0,1,.05-.08c.07-.06.15.08.14.18a1.29,1.29,0,0,0,0,.48c.06.16.27.26.39.16-.08-.12.08-.26.22-.26s.3.07.43,0a.32.32,0,0,0,.14-.34.91.91,0,0,0-.17-.36.52.52,0,0,1-.51-.07c-.12-.09-.24-.25-.38-.19a1.46,1.46,0,0,0,.16-.21,2.36,2.36,0,0,0-.28-.12c-.09-.05-.18-.15-.13-.25a.16.16,0,0,1,.07-.07h0a6.84,6.84,0,0,1,1.56.23c-.16.3-.2.85.55,1.12,1.09.39,0,0,1-.54,0,0,0,0,0,0a8.11,8.11,0,0,1,2.14,1.48l-.44.32c-.46.31.15.47.15.47h.63c.34,0,.31,0,.33-.07A7.77,7.77,0,0,1,435.81,255.61Z" transform="translate(-53.29 -73.83)" opacity="0.1"/><path d="M423.49,256.14a.48.48,0,0,1,0,.12c-.06.21-.37.14-.58.2-.44.14-.33.91-.76,1.11-.21.09-.46,0-.67.09a2.08,2.08,0,0,0-.38.35,1,1,0,0,1-.83.24,8,8,0,0,1,1.79-4.22.67.67,0,0,1,.24,0,.44.44,0,0,1,.29.36,1.42,1.42,0,0,1,0,.5l.32-.24a.31.31,0,0,1,.08.44c-.1.14-.3.16-.48.19s-.38.13-.39.3.1.27.19.38.18.28.1.4l.7-.41a.43.43,0,0,1,.13-.05A.27.27,0,0,1,423.49,256.14Z" transform="translate(-53.29 -73.83)" opacity="0.2"/><path d="M424,255.05l-.06.19a.8.8,0,0,0,.55,0,.42.42,0,0,0,.15-.11.6.6,0,0,0,.12-.32,1.7,1.7,0,0,0,0-.45.48.48,0,0,0-.24-.36.29.29,0,0,0-.39.11c-.06.13,0,.29-.07.42s-.2.16-.24.27A.2.2,0,0,0,424,255.05Z" transform="translate(-53.29 -73.83)" opacity="0.2"/><path d="M427.49,251.67c-.25.21-.65-.07-.95.07s-.24.29-.41.32a2.64,2.64,0,0,1-.28,0c-.1,0-.2.07-.19.16a.23.23,0,0,0,.07.11l.25.23a.7.7,0,0,1,.08.1.21.21,0,0,1-.14.27.54.54,0,0,1-.33,0,.65.65,0,0,1-.2-.05c-.06,0-.1-.13-.06-.19l.07-.07a.27.27,0,0,0,.08-.24.19.19,0,0,0-.19-.17l-.13.06-.43.26c-.2.11-.45.23-.65.13a.11.11,0,0,1-.09-.06s0-.08,0-.13a.29.29,0,0,0,0-.16,7.92,7.92,0,0,1,2.65-1.11,7.21,7.21,0,0,1,.93-.15h0v0C427.63,251.28,427.65,251.54,427.49,251.67Z" transform="translate(-53.29 -73.83)" opacity="0.2"/><path d="M425.8,253.76a.17.17,0,0,0-.23.15l.1.16,0-.09c0,.09.11.18.19.11a.21.21,0,0,0,0-.28Z" transform="translate(-53.29 -73.83)" opacity="0.2"/><path d="M429.43,256.12c-.13-.14-.36-.09-.56-.07s-.45-.08-.44-.27.21-.24.38-.25a.5.5,0,0,0-.52-.53.62.62,0,0,1,0,.5.3.3,0,0,1-.42.15c-.25-.19.06-.69-.18-.89a.48.48,0,0,0-.41,0c-.48.11-1,.28-1.19.74,0,.05-.4,0-.52,0s-.19.37-.21.5a.28.28,0,0,0,0,.22c0,.08.13.16.09.24s-.1.06-.14.11.26.5.36.55.38,0,.57.09a.44.44,0,0,1,.17.45l-.18,0a.58.58,0,0,1-.2.68.78.78,0,0,1,.71.22s.09.1.15.1a.22.22,0,0,0,.11-.05.86.86,0,0,0,.4-.54l.2,0c0-.11,0-.29-.12-.25s0,0-.07.06-.26,0-.27-.17a.62.62,0,0,1,.14-.36c.05-.06.09-.13.14-.2a.76.76,0,0,1,.42-.35c.31-.07.56.26.71.54.06.12.09.31,0,.33s-.14-.05-.19,0,0,.16-.1.21-.11,0-.16,0-.11.23,0,.35.15-.07.23-.12.38.08.56,0,.15-.15.22-.22.54-.23.57-.49-.1-.28-.13-.43S429.62,256.31,429.43,256.12Z" transform="translate(-53.29 -73.83)" opacity="0.2"/><path d="M423.53,258.07a.51.51,0,0,0,.25,0c.12,0,.51.11.35.33s-.41-.25-.62-.13c.12,0,.11.23.05.35s-.13.27-.05.38c.16-.07.32.08.5.12s.45-.13.68-.09c0-.08,0-.17,0-.26s.17-.07.25-.13.18-.13.26-.07,0-.2,0-.29a1.51,1.51,0,0,1-.21-.23c-.05-.09,0-.23.06-.26s.19,0,.27,0a.21.21,0,0,0,.1-.19,1.85,1.85,0,0,1,0-.23h-.19a.16.16,0,0,1-.11.19.49.49,0,0,1-.24,0,1.36,1.36,0,0,0-.09-.69h-.25c0,.1-.11.16-.21.16a.55.55,0,0,1-.25-.13c-.05-.05-.11-.1-.18-.08s-.13.13-.12.23c0,.36-.15.27-.3.47A.4.4,0,0,0,423.53,258.07Z" transform="translate(-53.29 -73.83)" opacity="0.1"/><path d="M423.7,261.53a1,1,0,0,1-.59-.08c-.08-.05-.18-.11-.27-.06a.23.23,0,0,0-.1.24c0,.08.09.16.12.25a.84.84,0,0,1,0,.74,1.41,1.41,0,0,1-1.12-.26.87.87,0,0,1-.09-.11c-.07-.16.15-.34.11-.5s-.35-.28-.25-.43.19-.06.28-.1a.21.21,0,0,0,.09-.29.53.53,0,0,0-.67.19c-.17,0-.22-.25-.23-.41s-.12-.4-.29-.34a.19.19,0,0,0-.11.15c-.13.38.18.74.46,1a.36.36,0,0,1,.14.23c0,.1-.06.21-.16.19l.35.39a.25.25,0,0,1,.05.13.18.18,0,0,1,0,.09,4.68,4.68,0,0,0-.27.4,7.59,7.59,0,0,1-.72-2,8.48,8.48,0,0,1-.19-1.93.59.59,0,0,1,.22-.2c.11,0,.24,0,.34-.06.25-.07.36-.39.61-.49a.51.51,0,0,1,.56.16.73.73,0,0,1,.12.61,1,1,0,0,0-.06.5c.1.29.46.32.76.31a.42.42,0,0,0,.23.45.3.3,0,0,0,.39-.25c.19,0,.43.12.43.32a.54.54,0,0,1-.22.3c-.08.1-.15.25-.07.35s.35,0,.42.17S423.83,261.51,423.7,261.53Z" transform="translate(-53.29 -73.83)" opacity="0.1"/><path d="M430.22,267.27l-.26,0a.58.58,0,0,1,.05-.48c.11-.16.31-.27.4-.45a1.87,1.87,0,0,1,.16-.35c.17-.27.57-.25.89-.2a.31.31,0,0,1,.13-.42,1.22,1.22,0,0,1,.5-.08.62.62,0,0,0,.46-.14c0-.05.08-.12.14-.14h.14l.9.11c0-.22-.24-.34-.45-.36s-.46,0-.56-.22a1,1,0,0,1-1.14.43.1.1,0,0,1-.08,0c-.09-.12.22-.27.12-.37l-.43-.17c-.06,0-.13-.05-.16-.11s0-.22.09-.33-.05-.44-.11-.66,0-.54.25-.54c.05,0,.11,0,.15,0s.1-.16.12-.25c.06-.27.33-.43.56-.59a1.62,1.62,0,0,0,.19-.18,1.16,1.16,0,0,0,.36-.78,1.57,1.57,0,0,0-.49.47c-.16.18-.4.33-.61.22a.61.61,0,0,1-.41.66.59.59,0,0,1-.68-.36.23.23,0,0,1,0-.26.42.42,0,0,1,.25,0,.72.72,0,0,0,.66-.34.93.93,0,0,1-.78-.4.6.6,0,0,1,.19-.8l-.2,0a.65.65,0,0,1,.52-.49c.13,0,.25,0,.37,0a.28.28,0,0,0,.23-.25.44.44,0,0,1-.2-.42.45.45,0,0,1,.26-.31.16.16,0,0,1-.15-.13.23.23,0,0,1,.17-.22.69.69,0,0,1,.32,0,1.07,1.07,0,0,1,.71.34,1,1,0,0,1,.11.57c0,.26,0,.52,0,.78a.85.85,0,0,0,.23.7.66.66,0,0,0,.41.1,3,3,0,0,0,1.22-.25.93.93,0,0,0,.49-.4,1.14,1.14,0,0,0,.1-.61c0-.42.08-1.09-.35-1.35a.38.38,0,0,0-.41,0c-.08.06-.14.15-.23.18s-.29-.05-.41,0-.11.13-.17.21a.19.19,0,0,1-.23.1c-.09-.05,0-.2,0-.31s-.17-.43-.13-.65.25-.34.39-.5a2.11,2.11,0,0,0,.33-.49c.13-.06.28,0,.4.12a.42.42,0,0,0,.41.08c.11.14-.06.4.1.51l.07,0a.24.24,0,0,1,0,.17c0,.2.1.44.3.5,0,0,.07,0,.08,0s0,0,0-.06a1,1,0,0,0-.17-.75,1,1,0,0,1-.07-.15.28.28,0,0,1,0-.15.7.7,0,0,1,.06-.17.3.3,0,0,1,0-.1c.07-.06.17,0,.25,0a.6.6,0,0,0,.22-.09.39.39,0,0,1,.32,0c.07.24.14.49.2.74A8.23,8.23,0,0,1,430.22,267.27Z" transform="translate(-53.29 -73.83)" opacity="0.2"/><path d="M429,264.68a1.21,1.21,0,0,0,0,.5.85.85,0,0,1-.64.1.89.89,0,0,0,.44,1.11.51.51,0,0,1-.48.09,1.47,1.47,0,0,1-.42-.28l-1-.77c-.16.06-.06.31.1.39s.35.09.43.24,0,.45.09.61a1.61,1.61,0,0,0,.26.15.47.47,0,0,1,.17.49l0,.13a7.93,7.93,0,0,1-3.58-1.05l0,0a1.23,1.23,0,0,0,0-.19c0-.3.28-.5.51-.68a.9.9,0,0,0,.44-.72c-.39.1-.54.59-.87.8a1.2,1.2,0,0,1-.28.13,2.88,2.88,0,0,0-.47.3,7.91,7.91,0,0,1-2.07-2.05,1.11,1.11,0,0,0,.22-.75c.09-.11.23.09.36.1s.23-.19.38-.2.21.43.44.51.3-.13.46-.15.35.13.54.07c.55-.17.14-.77.22-1.11.05-.16.25-.19.38-.27a.71.71,0,0,0,.31-.58,2.4,2.4,0,0,0-.11-.66.69.69,0,0,1,.05-.63c.21-.23.62-.08.91-.23s.29-.43.5-.59a1.06,1.06,0,0,1,.65-.19.55.55,0,0,1,.18,0c.11.06.09.23.07.34a5.53,5.53,0,0,1-.31,1c.26.12.62.23.81,0a.7.7,0,0,1,.13-.17.37.37,0,0,1,.34,0c.09.2.19.39.29.57a1.17,1.17,0,0,0-1.17.76.5.5,0,0,1-.08.2.35.35,0,0,1-.28.12,2.67,2.67,0,0,1-.94-.31c-.32-.1-.77,0-.85.28.26-.09.48.18.73.28a1.63,1.63,0,0,0,.45.08,3.38,3.38,0,0,1,1.08.28.72.72,0,0,0,.45-.62,1.33,1.33,0,0,0,1.06.56,1.73,1.73,0,0,0,0,1c.12.24.36.46.35.73A.38.38,0,0,0,429,264.68Z" transform="translate(-53.29 -73.83)" opacity="0.2"/><path d="M308.28,92.65a8.81,8.81,0,1,1-6.68,10.52A8.81,8.81,0,0,1,308.28,92.65Z" transform="translate(-53.29 -73.83)" fill="#407bff" style="isolation:isolate"/><path d="M316.7,98.69a.91.91,0,1,0-.9-.9A.9.9,0,0,0,316.7,98.69Z" transform="translate(-53.29 -73.83)" opacity="0.2"/><path d="M313.74,94.3a.91.91,0,0,0,1.81,0s0,0,0,0a9,9,0,0,0-1.24-.79A.91.91,0,0,0,313.74,94.3Z" transform="translate(-53.29 -73.83)" opacity="0.2"/><path d="M304,102.7a1.39,1.39,0,1,0,1.39,1.39A1.4,1.4,0,0,0,304,102.7Z" transform="translate(-53.29 -73.83)" opacity="0.2"/><path d="M318.59,98.6a9.35,9.35,0,0,0-.51-1.27,1.1,1.1,0,0,0,0,.18A1.4,1.4,0,0,0,318.59,98.6Z" transform="translate(-53.29 -73.83)" opacity="0.2"/><path d="M303.38,98.48a1.39,1.39,0,0,0-1-1.32,8.88,8.88,0,0,0-.89,2.63,1.51,1.51,0,0,0,.48.09A1.4,1.4,0,0,0,303.38,98.48Z" transform="translate(-53.29 -73.83)" opacity="0.2"/><path d="M317.62,102.37a1.39,1.39,0,0,0,1,1.34A8.86,8.86,0,0,0,319,101,1.38,1.38,0,0,0,317.62,102.37Z" transform="translate(-53.29 -73.83)" opacity="0.2"/><path d="M309,96.6A1.39,1.39,0,1,0,307.57,98,1.4,1.4,0,0,0,309,96.6Z" transform="translate(-53.29 -73.83)" opacity="0.2"/><circle cx="260.33" cy="30.91" r="0.9" opacity="0.2"/><path d="M317,105.2a.89.89,0,0,0,.63.85,8.87,8.87,0,0,0,.81-1.56.89.89,0,0,0-1.44.71Z" transform="translate(-53.29 -73.83)" opacity="0.2"/><path d="M314.64,108.59a1.9,1.9,0,0,0,0,.25,8.91,8.91,0,0,0,2.53-2.24,2,2,0,0,0-2.56,2Z" transform="translate(-53.29 -73.83)" opacity="0.2"/><path d="M302.35,101.93a2.06,2.06,0,0,0-.9-1.7,8.87,8.87,0,0,0,.15,2.94c0,.09,0,.18.07.27A2,2,0,0,0,302.35,101.93Z" transform="translate(-53.29 -73.83)" opacity="0.2"/><path d="M306.47,93.39s0-.07,0-.11a8.83,8.83,0,0,0-3.63,3.15,3.31,3.31,0,0,0,.55,0A3.09,3.09,0,0,0,306.47,93.39Z" transform="translate(-53.29 -73.83)" opacity="0.2"/><path d="M310.66,93.84a2.07,2.07,0,0,0,1.81-1.1,8.88,8.88,0,0,0-3.71-.17A2,2,0,0,0,310.66,93.84Z" transform="translate(-53.29 -73.83)" opacity="0.2"/><path d="M310.2,107.69a.91.91,0,1,0,.9.9A.9.9,0,0,0,310.2,107.69Z" transform="translate(-53.29 -73.83)" opacity="0.2"/><path d="M308.25,109.34a.88.88,0,0,0-.68.32,9.92,9.92,0,0,0,1.53.33A.88.88,0,0,0,308.25,109.34Z" transform="translate(-53.29 -73.83)" opacity="0.2"/><path d="M304.68,107.21a.9.9,0,0,0-.66.31,8.25,8.25,0,0,0,1.38,1.12.87.87,0,0,0,.19-.52A.91.91,0,0,0,304.68,107.21Z" transform="translate(-53.29 -73.83)" opacity="0.2"/><path d="M315.05,99.71a.21.21,0,1,0-.21-.21A.22.22,0,0,0,315.05,99.71Z" transform="translate(-53.29 -73.83)" opacity="0.2"/><path d="M316.27,96.33a.21.21,0,0,0,.21-.21.21.21,0,0,0-.21-.21.2.2,0,0,0-.2.21A.21.21,0,0,0,316.27,96.33Z" transform="translate(-53.29 -73.83)" opacity="0.2"/><path d="M317.86,99.71a.21.21,0,1,0-.21-.21A.21.21,0,0,0,317.86,99.71Z" transform="translate(-53.29 -73.83)" opacity="0.2"/><path d="M310.63,94.52a.2.2,0,0,0,.2-.2.2.2,0,0,0-.2-.21.21.21,0,0,0-.21.21A.2.2,0,0,0,310.63,94.52Z" transform="translate(-53.29 -73.83)" opacity="0.2"/><path d="M308,98.28a.2.2,0,0,0-.2.2.2.2,0,0,0,.2.21.21.21,0,0,0,.21-.21A.2.2,0,0,0,308,98.28Z" transform="translate(-53.29 -73.83)" opacity="0.2"/><path d="M306.59,104.09a.2.2,0,0,0-.21-.2.2.2,0,0,0-.2.2.2.2,0,0,0,.2.21A.21.21,0,0,0,306.59,104.09Z" transform="translate(-53.29 -73.83)" opacity="0.2"/><path d="M303.17,101.73a.21.21,0,1,0,.21-.21A.21.21,0,0,0,303.17,101.73Z" transform="translate(-53.29 -73.83)" opacity="0.2"/><path d="M312.24,102.72a.21.21,0,1,0,.21-.21A.21.21,0,0,0,312.24,102.72Z" transform="translate(-53.29 -73.83)" opacity="0.2"/><circle cx="258.95" cy="26.35" r="0.21" opacity="0.2"/><path d="M314.11,106.53a.2.2,0,0,0-.2.21.2.2,0,0,0,.2.2.2.2,0,0,0,.21-.2A.21.21,0,0,0,314.11,106.53Z" transform="translate(-53.29 -73.83)" opacity="0.2"/><path d="M304.89,97.09a.21.21,0,0,0,0-.42.21.21,0,1,0,0,.42Z" transform="translate(-53.29 -73.83)" opacity="0.2"/><path d="M309.29,96.8a.2.2,0,0,0,.21-.2.21.21,0,0,0-.21-.21.2.2,0,0,0-.2.21A.2.2,0,0,0,309.29,96.8Z" transform="translate(-53.29 -73.83)" opacity="0.2"/><path d="M309.09,107.21a.21.21,0,1,0,.2.21A.21.21,0,0,0,309.09,107.21Z" transform="translate(-53.29 -73.83)" opacity="0.2"/><path d="M308.6,104.74a.2.2,0,0,0-.21.2.21.21,0,0,0,.21.21.2.2,0,0,0,.2-.21A.2.2,0,0,0,308.6,104.74Z" transform="translate(-53.29 -73.83)" opacity="0.2"/><path d="M303.58,105.9a.2.2,0,0,0-.2.21.2.2,0,0,0,.2.2.2.2,0,0,0,.21-.2A.21.21,0,0,0,303.58,105.9Z" transform="translate(-53.29 -73.83)" opacity="0.2"/><path d="M311.58,109.29a.21.21,0,1,0,.21.21A.21.21,0,0,0,311.58,109.29Z" transform="translate(-53.29 -73.83)" opacity="0.2"/><path d="M312.72,97.07a.48.48,0,1,0-.48-.47A.47.47,0,0,0,312.72,97.07Z" transform="translate(-53.29 -73.83)" opacity="0.2"/><path d="M312.72,94.79a.48.48,0,1,0-.48-.47A.47.47,0,0,0,312.72,94.79Z" transform="translate(-53.29 -73.83)" opacity="0.2"/><path d="M307.57,94.79a.48.48,0,0,0,0-1,.48.48,0,1,0,0,1Z" transform="translate(-53.29 -73.83)" opacity="0.2"/><path d="M311.58,107.21a.48.48,0,1,0-.48.48A.47.47,0,0,0,311.58,107.21Z" transform="translate(-53.29 -73.83)" opacity="0.2"/><path d="M306.59,107.64a.48.48,0,1,0,.48.48A.48.48,0,0,0,306.59,107.64Z" transform="translate(-53.29 -73.83)" opacity="0.2"/><circle cx="251.6" cy="32.48" r="0.48" opacity="0.2"/><path d="M312.72,108.12a.48.48,0,1,0,.47.47A.47.47,0,0,0,312.72,108.12Z" transform="translate(-53.29 -73.83)" opacity="0.2"/><path d="M309.5,102.21a.48.48,0,1,0-.48-.48A.49.49,0,0,0,309.5,102.21Z" transform="translate(-53.29 -73.83)" opacity="0.2"/><path d="M316.27,103.67a.48.48,0,1,0-.47-.47A.47.47,0,0,0,316.27,103.67Z" transform="translate(-53.29 -73.83)" opacity="0.2"/><path d="M305.37,101a.48.48,0,1,0,.47.47A.47.47,0,0,0,305.37,101Z" transform="translate(-53.29 -73.83)" opacity="0.2"/><circle cx="250.08" cy="26.52" r="0.48" opacity="0.2"/><path d="M134.91,370a50.65,50.65,0,0,1,5.24-11.19,48.43,48.43,0,0,1,3.23-4.63,52,52,0,0,1,10.53-10.24v0c.78-.56,1.52-1.08,2.33-1.6a42.35,42.35,0,0,1,5.23-3,36.81,36.81,0,0,1,3.5-1.62,50.22,50.22,0,0,1,5.24-1.88,54.06,54.06,0,0,1,7.23-1.59l0,0a56.32,56.32,0,0,1,9.15-.54A52.33,52.33,0,0,1,212.28,341s.05,0,.07,0a47.88,47.88,0,0,1,6.4,4.46c.95.76,1.86,1.55,2.75,2.37s1.8,1.74,2.66,2.66c.6.62,1.18,1.29,1.76,2,.74.87,1.45,1.77,2.12,2.72a51.46,51.46,0,0,1,4,6.17c.31.6.64,1.2.92,1.8a50.6,50.6,0,0,1,2.56,6.07q.45,1.25.81,2.52a52.51,52.51,0,0,1,2,12c.08,1.43.12,2.85.07,4.29,0,.73,0,1.45-.1,2.16-.08,1.14-.18,2.28-.32,3.4a53.33,53.33,0,0,1-1.34,6.77,38.65,38.65,0,0,1-1.34,4.28,45.68,45.68,0,0,1-2,4.94,51.4,51.4,0,0,1-4.95,8.3,44.78,44.78,0,0,1-3.59,4.45,52.85,52.85,0,0,1-4.72,4.63,55.48,55.48,0,0,1-5.5,4.16,51.65,51.65,0,0,1-7.63,4.18,50.5,50.5,0,0,1-6.13,2.3h0a50.46,50.46,0,0,1-5,1.26s0,0-.06,0a52.88,52.88,0,0,1-31.58-3.39h0c-1.4-.6-2.78-1.28-4.1-2-.94-.51-1.88-1.06-2.78-1.62-1.13-.69-2.19-1.43-3.25-2.2-.54-.41-1.08-.81-1.61-1.24a50.25,50.25,0,0,1-5.4-4.91,52.89,52.89,0,0,1-12.36-21,52.11,52.11,0,0,1-2.26-11.89c-.1-1.68-.15-3.4-.11-5.12a45.36,45.36,0,0,1,.36-4.83A49,49,0,0,1,134.91,370Z" transform="translate(-53.29 -73.83)" fill="#407bff" style="isolation:isolate"/><path d="M134.91,370a50.65,50.65,0,0,1,5.24-11.19,48.43,48.43,0,0,1,3.23-4.63,52,52,0,0,1,10.53-10.24v0c.78-.56,1.52-1.08,2.33-1.6a42.35,42.35,0,0,1,5.23-3,36.81,36.81,0,0,1,3.5-1.62,50.22,50.22,0,0,1,5.24-1.88,54.06,54.06,0,0,1,7.23-1.59l0,0a56.32,56.32,0,0,1,9.15-.54A52.33,52.33,0,0,1,212.28,341s.05,0,.07,0a47.88,47.88,0,0,1,6.4,4.46c.95.76,1.86,1.55,2.75,2.37s1.8,1.74,2.66,2.66c.6.62,1.18,1.29,1.76,2,.74.87,1.45,1.77,2.12,2.72a51.46,51.46,0,0,1,4,6.17c.31.6.64,1.2.92,1.8a50.6,50.6,0,0,1,2.56,6.07q.45,1.25.81,2.52a52.51,52.51,0,0,1,2,12c.08,1.43.12,2.85.07,4.29,0,.73,0,1.45-.1,2.16-.08,1.14-.18,2.28-.32,3.4a53.33,53.33,0,0,1-1.34,6.77,38.65,38.65,0,0,1-1.34,4.28,45.68,45.68,0,0,1-2,4.94,51.4,51.4,0,0,1-4.95,8.3,44.78,44.78,0,0,1-3.59,4.45,52.85,52.85,0,0,1-4.72,4.63,55.48,55.48,0,0,1-5.5,4.16,51.65,51.65,0,0,1-7.63,4.18,50.5,50.5,0,0,1-6.13,2.3h0a50.46,50.46,0,0,1-5,1.26s0,0-.06,0a52.88,52.88,0,0,1-31.58-3.39h0c-1.4-.6-2.78-1.28-4.1-2-.94-.51-1.88-1.06-2.78-1.62-1.13-.69-2.19-1.43-3.25-2.2-.54-.41-1.08-.81-1.61-1.24a50.25,50.25,0,0,1-5.4-4.91,52.89,52.89,0,0,1-12.36-21,52.11,52.11,0,0,1-2.26-11.89c-.1-1.68-.15-3.4-.11-5.12a45.36,45.36,0,0,1,.36-4.83A49,49,0,0,1,134.91,370Z" transform="translate(-53.29 -73.83)" fill="#fff" opacity="0.2"/><path d="M134.91,370a25.92,25.92,0,0,1,5,.52c2.35.5,4.63,1.38,7,1.82,3,.54,6.11.38,9.14.72s6.21,1.3,8.23,3.62a177.94,177.94,0,0,0-22.1,2.51c-3.19.57-6.39,1.16-9.58,1.46A49,49,0,0,1,134.91,370Z" transform="translate(-53.29 -73.83)" opacity="0.2"/><path d="M218.54,390.73a98.76,98.76,0,0,1,13.62-1,55.32,55.32,0,0,1,6.16.46c-.08,1.14-.18,2.28-.32,3.4l-.51,0A48.52,48.52,0,0,1,218.54,390.73Z" transform="translate(-53.29 -73.83)" opacity="0.2"/><path d="M193.31,373.92a5.92,5.92,0,0,1,2.55-.12,59.08,59.08,0,0,0,10.3-.17c3-.24,5.93-.57,8.89-.88a35.32,35.32,0,0,0,6.8-1.18,27.17,27.17,0,0,1,3.71-1.1,15.62,15.62,0,0,1,4.71.29c2,.34,4,.65,6,1a52.51,52.51,0,0,1,2,12,21.25,21.25,0,0,1-4.06-.49c-2.28-.52-4.47-1.5-6.82-1.76-2.08-.22-4.19.12-6.28,0a37.18,37.18,0,0,1-6.54-1.24c-7.49-1.71-15.37-1.71-22.57-4.32A1.78,1.78,0,0,1,193.31,373.92Z" transform="translate(-53.29 -73.83)" opacity="0.2"/><path d="M153.91,343.87c.78-.56,1.52-1.08,2.33-1.6a42.35,42.35,0,0,1,5.23-3,36.81,36.81,0,0,1,3.5-1.62c.24,0,.47.12.71.18a246.17,246.17,0,0,0,36.19,6.86c6.55.75,13.35,1.3,19.63,3.14.92.86,1.8,1.74,2.66,2.66a125.78,125.78,0,0,0-20.37-3.34c-5.85-.38-11.74-.1-17.56-.66-5.27-.49-10.51-1.68-15.79-1.4-1.17.07-2.34.19-3.52.26a44,44,0,0,1-11.72-1.18A12.8,12.8,0,0,1,153.91,343.87Z" transform="translate(-53.29 -73.83)" opacity="0.2"/><path d="M186.26,352.12c5.2-1.07,10.61-.57,15.9-.07a123.12,123.12,0,0,0,18.31.75c1.82-.09,3.62-.28,5.45-.33.74.87,1.45,1.77,2.12,2.72a51.46,51.46,0,0,1,4,6.17c.31.6.64,1.2.92,1.8-.55-.07-1.08-.13-1.57-.17-3.12-.25-6.23-.48-9.32-.95a62.43,62.43,0,0,1-7-1.46,37.11,37.11,0,0,1-5.41-1.85c-1.48-.64-2.88-1.4-4.36-2a52.6,52.6,0,0,0-5.31-1.8C195.5,353.58,190.94,352.24,186.26,352.12Z" transform="translate(-53.29 -73.83)" opacity="0.2"/><path d="M214.23,357c2.37-.55,4.85,0,7.22-.48.91-.18,1.76-.5,2.66-.73a18.94,18.94,0,0,1,3.93-.63,51.46,51.46,0,0,1,4,6.17,81.4,81.4,0,0,1-8.92-1.24c-1.63-.32-3.27-.68-4.89-1-.93-.21-4.17-.45-4.71-1.11C213.18,357.61,213.77,357.14,214.23,357Z" transform="translate(-53.29 -73.83)" opacity="0.2"/><path d="M143.38,354.13a52.66,52.66,0,0,1,5.24-5.82,44.25,44.25,0,0,1,7.78,1.46,36,36,0,0,0,6.25,1.23c2.76.16,5.52-.42,8.29-.48s5.76.45,7.69,2.46c-3.58.22-7.17.46-10.75.67-6.23.36-12.46.61-18.71.58C147.24,354.22,145.31,354.2,143.38,354.13Z" transform="translate(-53.29 -73.83)" opacity="0.2"/><path d="M157.76,342.67c-.38-.12-.92-.26-1.52-.4a42.35,42.35,0,0,1,5.23-3,53.58,53.58,0,0,0,8,1.42c4.48.47,9.3.47,13,3.11l-5.81-.63a50,50,0,0,0-11.65-.35,25.53,25.53,0,0,1-4.34.43A13.26,13.26,0,0,1,157.76,342.67Z" transform="translate(-53.29 -73.83)" opacity="0.2"/><path d="M170.21,335.77a54.06,54.06,0,0,1,7.23-1.59l0,0a56.32,56.32,0,0,1,9.15-.54A52.33,52.33,0,0,1,212.28,341s.05,0,.07,0a47.88,47.88,0,0,1,6.4,4.46c-3.54,0-8.26-1.38-9.79-1.64-4-.69-8.07-1.39-12.09-2.14C187.94,340,179,338,170.21,335.77Z" transform="translate(-53.29 -73.83)" opacity="0.2"/><path d="M177.46,334.16a56.32,56.32,0,0,1,9.15-.54A52.33,52.33,0,0,1,212.28,341a7.06,7.06,0,0,0-2.14-.26c-.69,0-1.38.23-2.08.33a17,17,0,0,1-2.67-.05,62.49,62.49,0,0,1-10-1.48c-3-.76-5.78-2-8.67-3A63,63,0,0,0,177.46,334.16Z" transform="translate(-53.29 -73.83)" opacity="0.2"/><path d="M152.35,398.83c.38-.63,1.22-.78,1.92-1,2.94-.73,5.4-2.69,8.15-3.94,4.41-2,9.39-2.17,14.22-2.31a66.3,66.3,0,0,1,8.1.11,57.1,57.1,0,0,1,7,1.28c5,1.17,9.9,2.57,14.8,4,9,2.63,18,5.41,27.24,7.18a14.24,14.24,0,0,1,1.56.43,45.68,45.68,0,0,1-2,4.94c-3,.11-6.27-.49-9-.56-8.2-.24-16.29,1.82-24.15,4.21a30.3,30.3,0,0,1-7,1.57c-3.23.18-6.4-.73-9.49-1.63-3.6-1.08-7.2-2.16-10.77-3.27a35.16,35.16,0,0,1-5.51-2.1c-1.5-.81-2.89-1.81-4.35-2.7a26.79,26.79,0,0,0-7.6-3.05,6.37,6.37,0,0,1-2.41-.89A1.82,1.82,0,0,1,152.35,398.83Z" transform="translate(-53.29 -73.83)" opacity="0.2"/><path d="M201.05,408.54a35.48,35.48,0,0,1-9.93.67,59.63,59.63,0,0,1-12.8-1.25,59.49,59.49,0,0,1-9.34-3.44c-1.83-.79-3.77-1.67-4.82-3.36,9.94-6,22.59-5.06,33.9-2.37,6.94,1.65,13.73,3.86,20.51,6.08-.61-.2-3.63,1.46-4.45,1.65a10.62,10.62,0,0,1-3.73,0C207,406.32,204.23,407.71,201.05,408.54Z" transform="translate(-53.29 -73.83)" opacity="0.2"/><path d="M134.57,402.44a25.84,25.84,0,0,1,3.61.47c2.08.43,4.54,1.7,4.38,3.82,5-.07,10.41-.05,14.55,2.78-1.94.47-3.88.94-5.82,1.44l49.82,7.89a16.06,16.06,0,0,0,4.42.32c3.13-.29,5.84-2.23,8.89-3,3.75-.9,9.58-.09,13.92,1.67a44.78,44.78,0,0,1-3.59,4.45,52.85,52.85,0,0,1-4.72,4.63,55.48,55.48,0,0,1-5.5,4.16c-10.71-.91-21.2-3.84-31.58-6.76,3.86-.34,7.7-.68,11.56-1,2.12-.2,4.4-.43,6-1.83q-9.39-1.68-18.87-2.55c-3.58-.32-7.19-.56-10.79-.79q-9.27-.57-18.54-1.18a3,3,0,0,0-1.69.19,1.1,1.1,0,0,0-.5,1.47,1.43,1.43,0,0,0,1,.47l5.77,1.32c1.77.4,4,1.57,3.46,3.27-3.28,0-6.59-.11-9.89-.18-1.16,0-2.34,0-3.53-.1A52.89,52.89,0,0,1,134.57,402.44Z" transform="translate(-53.29 -73.83)" opacity="0.2"/><path d="M152.33,428.34a37.7,37.7,0,0,1,8.36-.31c6.23.39,12.36,1.82,18.46,3.07a21,21,0,0,0,5,.6c1.88-.06,3.73-.62,5.62-.63,2.95,0,5.73,1.2,8.49,2.2,1.65.59,5.58,1.05,8.67,2a50.5,50.5,0,0,1-6.13,2.3h0a1.38,1.38,0,0,1-.16-.06,47.75,47.75,0,0,0-11.78-2.68c-8.73-1.24-17.53-2.45-26.31-1.81a12.8,12.8,0,0,0-2.53.39c-.94-.51-1.88-1.06-2.78-1.62-1.13-.69-2.19-1.43-3.25-2.2C153.4,429.17,152.86,428.77,152.33,428.34Z" transform="translate(-53.29 -73.83)" opacity="0.2"/><path d="M209.2,424.08c4.68-2.43,10.21-2.35,15.55-1.78a52.85,52.85,0,0,1-4.72,4.63A46.26,46.26,0,0,1,209.2,424.08Z" transform="translate(-53.29 -73.83)" opacity="0.2"/><path d="M164.09,435.41c7.8-1.36,15.83-.44,23.49,1.42a81.65,81.65,0,0,1,8.09,2,52.88,52.88,0,0,1-31.58-3.39Z" transform="translate(-53.29 -73.83)" opacity="0.2"/><path d="M153.94,429.58c.52-.1,1.06-.14,1.59-.19,3.67-.32,7.46-.63,11,.33-2.53-.63-6,.79-9.36,2.06C156.06,431.09,155,430.35,153.94,429.58Z" transform="translate(-53.29 -73.83)" opacity="0.2"/><path d="M132.56,380.6a45.36,45.36,0,0,0-.36,4.83c0,1.72,0,3.44.11,5.12a13.43,13.43,0,0,0,3.8.11c5.95-.43,11.88-.85,17.83-1.26-1.91-2.09-5.12-2.18-7.93-1.88s-5.82.83-8.35-.46a24.12,24.12,0,0,1,14.27-4.14c3.48.11,6.93,1,10.36.64,3-.29,6-1.53,9-1.19a24.42,24.42,0,0,1,4.28,1.09c15.18,4.39,32.24-4,47,1.69q-13.7,1.55-27.38,3c3.83,3.46,9.57,3.24,14.67,3.88a38.31,38.31,0,0,1,15.83,5.69,17.24,17.24,0,0,0,5.3,2.73,13.81,13.81,0,0,0,4.49,0c.4,0,.8-.09,1.2-.13a53.33,53.33,0,0,0,1.34-6.77c.14-1.12.24-2.26.32-3.4.06-.71.08-1.43.1-2.16.05-1.44,0-2.86-.07-4.29a52.51,52.51,0,0,0-2-12q-.36-1.28-.81-2.52c-3.67,0-7.39.44-11-.23-1.5-.28-3-.73-4.46-1a33,33,0,0,0-5.07-.37l-34.12-.77c-4.73-.11-9.43-.21-14.12-.76a106.07,106.07,0,0,1,32.05-2.91c1.68.1,3.48.21,4.92-.66-5.12-3.73-12.19-2.3-18.5-3-2.84-.29-5.63-1.06-8.49-1-2.62.06-5.19.76-7.79,1.07a49.81,49.81,0,0,1-8.46.08c-6.75-.29-13.52-.61-20.3-.91A50.65,50.65,0,0,0,134.91,370,49,49,0,0,0,132.56,380.6ZM158,363.24a26.79,26.79,0,0,1,6.53-.92l.78.78a18.62,18.62,0,0,1-11.18,1C155.4,363.78,156.67,363.51,158,363.24Z" transform="translate(-53.29 -73.83)" opacity="0.2"/><path d="M345.52,389.59c-16.77,7.73-28.25,18.56-25.65,24.2s18.3,3.94,35.06-3.79,28.25-18.57,25.65-24.2S362.28,381.86,345.52,389.59Zm8.27,17.93c-14.67,6.76-28.27,8.51-30.39,3.91s8.05-13.8,22.71-20.56,28.26-8.52,30.39-3.92S368.45,400.76,353.79,407.52Z" transform="translate(-53.29 -73.83)" fill="#407bff"/><path d="M345.52,389.59c-16.77,7.73-28.25,18.56-25.65,24.2s18.3,3.94,35.06-3.79,28.25-18.57,25.65-24.2S362.28,381.86,345.52,389.59Zm8.27,17.93c-14.67,6.76-28.27,8.51-30.39,3.91s8.05-13.8,22.71-20.56,28.26-8.52,30.39-3.92S368.45,400.76,353.79,407.52Z" transform="translate(-53.29 -73.83)" fill="#fff" opacity="0.6"/><path d="M345.92,390.46c-13.53,6.24-22.86,14.84-20.84,19.21s14.61,2.86,28.14-3.38,22.86-14.84,20.84-19.21S359.45,384.22,345.92,390.46Zm6.41,13.91c-11.83,5.45-22.75,7-24.4,3.42s6.62-10.88,18.45-16.34,22.75-7,24.4-3.42S364.16,398.91,352.33,404.37Z" transform="translate(-53.29 -73.83)" fill="#407bff"/><path d="M345.92,390.46c-13.53,6.24-22.86,14.84-20.84,19.21s14.61,2.86,28.14-3.38,22.86-14.84,20.84-19.21S359.45,384.22,345.92,390.46Zm6.41,13.91c-11.83,5.45-22.75,7-24.4,3.42s6.62-10.88,18.45-16.34,22.75-7,24.4-3.42S364.16,398.91,352.33,404.37Z" transform="translate(-53.29 -73.83)" fill="#fff" opacity="0.5"/><path d="M346.32,391.33C335.7,396.23,328.38,403,330,406.42s11.48,2.24,22.1-2.66,17.94-11.64,16.36-15.08S356.94,386.44,346.32,391.33Zm5,10.92c-9.29,4.28-17.87,5.49-19.16,2.69s5.2-8.54,14.48-12.83,17.87-5.48,19.16-2.68S360.65,398,351.36,402.25Z" transform="translate(-53.29 -73.83)" fill="#407bff"/><path d="M346.32,391.33C335.7,396.23,328.38,403,330,406.42s11.48,2.24,22.1-2.66,17.94-11.64,16.36-15.08S356.94,386.44,346.32,391.33Zm5,10.92c-9.29,4.28-17.87,5.49-19.16,2.69s5.2-8.54,14.48-12.83,17.87-5.48,19.16-2.68S360.65,398,351.36,402.25Z" transform="translate(-53.29 -73.83)" fill="#fff" opacity="0.7"/><circle cx="350.22" cy="399.79" r="15.96" transform="translate(-195.39 526.26) rotate(-70.92)" fill="#407bff" style="isolation:isolate"/><path d="M338.62,388.85v0a16,16,0,0,1,13.07-4.92c.38,0,.77.09,1.14.15a15.86,15.86,0,0,1,9.45,5.29c.27.32.53.64.77,1a15.64,15.64,0,0,1,1.84,3.2,12.78,12.78,0,0,1,.65,1.82,15.47,15.47,0,0,1,.6,5.62,1.46,1.46,0,0,1,0,.3c-.05.47-.1.92-.19,1.37a15.43,15.43,0,0,1-1.51,4.44,11.72,11.72,0,0,1-.87,1.5,16,16,0,0,1-14.78,7.12,15.45,15.45,0,0,1-5-1.33h0a1.88,1.88,0,0,1-.38-.18,14.62,14.62,0,0,1-4.08-2.81s-.09-.07-.13-.12a15.09,15.09,0,0,1-3.11-4.19,7.08,7.08,0,0,1-.5-1.09,7.66,7.66,0,0,1-.42-1.05,12.75,12.75,0,0,1-.47-1.74,15.61,15.61,0,0,1-.32-4.85A15.81,15.81,0,0,1,338.62,388.85Z" transform="translate(-53.29 -73.83)" fill="#fff" opacity="0.2"/><g opacity="0.2"><path d="M363.42,408.76a15.92,15.92,0,0,1-14.65,6.93,15.35,15.35,0,0,1-4.53-1.11C349.33,414.24,356.83,413.38,363.42,408.76Z" transform="translate(-53.29 -73.83)" fill="#fff"/><path d="M350.53,396.67c3.4-1.31,10.29-2.85,13.38-5.05a4.78,4.78,0,0,1,.38.65,35.58,35.58,0,0,0-4.81,4c-3.42,3.12-5.13,6-10.81,6.22S346.74,398.15,350.53,396.67Z" transform="translate(-53.29 -73.83)" fill="#fff"/><path d="M340.52,412.47c5-.63,17.06-2.78,25.32-9.3-.13.57-.29,1.12-.47,1.69-5.24,2.67-15,7.83-23.23,8.68A14.17,14.17,0,0,1,340.52,412.47Z" transform="translate(-53.29 -73.83)" fill="#fff"/><path d="M336.71,408.26a74,74,0,0,0,9.58-2c6.43-1.92,15.37-6.46,19.49-10a14.31,14.31,0,0,1,.37,2.77c-5.14,3.44-17.56,11-27.9,11.27A14.62,14.62,0,0,1,336.71,408.26Z" transform="translate(-53.29 -73.83)" fill="#fff"/><path d="M336.47,391.74a9,9,0,0,1,.74-1.18c4.82-1.43,14.1-3.65,18.33-5.8a13.31,13.31,0,0,1,1.86.79C352.13,386.76,341.2,390.63,336.47,391.74Z" transform="translate(-53.29 -73.83)" fill="#fff"/><path d="M335.23,394.3a48.51,48.51,0,0,1,11.28-2.23c2.58,0,10.22-3,12.92-5.3a5.24,5.24,0,0,1,.61.47c-6.62,2.79-14.69,9.68-18.41,11.68a40.78,40.78,0,0,1-7.2,3.07,14.85,14.85,0,0,1-.11-3.66A16.19,16.19,0,0,1,335.23,394.3Z" transform="translate(-53.29 -73.83)" fill="#fff"/></g><path d="M334.64,403.18a35.77,35.77,0,0,0,3.44-1c4.37-1.48,12.25-7.85,19.22-10.78,2.62-1.09,4.12-1.72,5-2.06.27.32.53.64.77,1a53.29,53.29,0,0,1-6.2,3.1c-4.44,1.86-9.18,4.38-11.91,6.66-2.09,1.73-7.37,4-9.83,4.84A12.75,12.75,0,0,1,334.64,403.18Z" transform="translate(-53.29 -73.83)" opacity="0.2"/><path d="M335.53,406a102.09,102.09,0,0,1,12.21-2.25c6.92-.8,9.54-3.87,12.37-6.79a19.08,19.08,0,0,1,4.78-3.41,12.78,12.78,0,0,1,.65,1.82A48.18,48.18,0,0,1,355.09,402c-6.55,3.07-15.65,4.56-19.06,5.05A7.08,7.08,0,0,1,335.53,406Z" transform="translate(-53.29 -73.83)" opacity="0.2"/><path d="M339.14,411.25a55.61,55.61,0,0,0,17.27-5.17c4.45-2.19,7.62-3.92,9.73-5.12a1.46,1.46,0,0,1,0,.3c-.05.47-.1.92-.19,1.37-5,2.67-16.56,8.18-26.66,8.74C339.22,411.36,339.18,411.3,339.14,411.25Z" transform="translate(-53.29 -73.83)" opacity="0.2"/><path d="M338.62,388.83a16,16,0,0,1,13.07-4.92c.38,0,.77.09,1.14.15C349.43,385.64,343.12,388.22,338.62,388.83Z" transform="translate(-53.29 -73.83)" opacity="0.2"/><path d="M343.35,414.18c4-.95,14.22-3.52,18.57-5.9a21.53,21.53,0,0,1,2.5-1.21,11.72,11.72,0,0,1-.87,1.5c-3.11,1.36-9.12,3.85-12.51,4.4-3,.48-5.68,1-7.29,1.39h0A1.88,1.88,0,0,1,343.35,414.18Z" transform="translate(-53.29 -73.83)" opacity="0.2"/><path d="M356.85,386.83s-5.85,3.62-8.48,4.06a32.08,32.08,0,0,1-4.83.45S352,387,356.85,386.83Z" transform="translate(-53.29 -73.83)" opacity="0.2"/><path d="M374.39,385.12A3.8,3.8,0,0,1,376.5,387c2.12,4.6-8.05,13.81-22.71,20.57s-28.27,8.51-30.39,3.91a3.76,3.76,0,0,1,0-2.79l-3.59,1.65a4.86,4.86,0,0,0,.08,3.5c2.6,5.64,18.3,3.94,35.06-3.79s28.25-18.57,25.65-24.2a4.8,4.8,0,0,0-2.61-2.33Z" transform="translate(-53.29 -73.83)" fill="#407bff"/><path d="M374.39,385.12A3.8,3.8,0,0,1,376.5,387c2.12,4.6-8.05,13.81-22.71,20.57s-28.27,8.51-30.39,3.91a3.76,3.76,0,0,1,0-2.79l-3.59,1.65a4.86,4.86,0,0,0,.08,3.5c2.6,5.64,18.3,3.94,35.06-3.79s28.25-18.57,25.65-24.2a4.8,4.8,0,0,0-2.61-2.33Z" transform="translate(-53.29 -73.83)" fill="#fff" opacity="0.6"/><path d="M370,387.13a2.39,2.39,0,0,1,.75.9c1.64,3.57-6.62,10.88-18.45,16.34s-22.75,7-24.4,3.42a2.47,2.47,0,0,1-.2-1.16l-2.9,1.34a3.2,3.2,0,0,0,.25,1.7c2,4.37,14.61,2.86,28.14-3.38s22.86-14.84,20.84-19.21a3.16,3.16,0,0,0-1.13-1.29Z" transform="translate(-53.29 -73.83)" fill="#407bff"/><path d="M370,387.13a2.39,2.39,0,0,1,.75.9c1.64,3.57-6.62,10.88-18.45,16.34s-22.75,7-24.4,3.42a2.47,2.47,0,0,1-.2-1.16l-2.9,1.34a3.2,3.2,0,0,0,.25,1.7c2,4.37,14.61,2.86,28.14-3.38s22.86-14.84,20.84-19.21a3.16,3.16,0,0,0-1.13-1.29Z" transform="translate(-53.29 -73.83)" fill="#fff" opacity="0.5"/><path d="M365.65,389.15a2.75,2.75,0,0,1,.19.28c1.29,2.8-5.19,8.54-14.48,12.82s-17.87,5.49-19.16,2.69a3.18,3.18,0,0,1-.09-.33l-2.34,1.08a2.25,2.25,0,0,0,.19.73c1.58,3.43,11.48,2.24,22.1-2.66s17.94-11.64,16.36-15.08a2.55,2.55,0,0,0-.42-.61Z" transform="translate(-53.29 -73.83)" fill="#407bff"/><path d="M365.65,389.15a2.75,2.75,0,0,1,.19.28c1.29,2.8-5.19,8.54-14.48,12.82s-17.87,5.49-19.16,2.69a3.18,3.18,0,0,1-.09-.33l-2.34,1.08a2.25,2.25,0,0,0,.19.73c1.58,3.43,11.48,2.24,22.1-2.66s17.94-11.64,16.36-15.08a2.55,2.55,0,0,0-.42-.61Z" transform="translate(-53.29 -73.83)" fill="#fff" opacity="0.7"/></g><g id="a1b4e402-eef2-4a71-951c-12f807804fd4" data-name="Plane"><path d="M57.14,248.45,53.39,250a6.75,6.75,0,0,0,1.15,5.09,5.62,5.62,0,0,0,4.05,2.09l2.6-5Z" transform="translate(-53.29 -73.83)" fill="#407bff"/><path d="M61.19,252.18l-2.61,5A5.42,5.42,0,0,1,55.5,256a5,5,0,0,1-1-.91A6.68,6.68,0,0,1,53.39,250l3.75-1.51Z" transform="translate(-53.29 -73.83)" fill="#fff" opacity="0.3"/><path d="M61.19,252.18l-2.61,5A5.42,5.42,0,0,1,55.5,256Z" transform="translate(-53.29 -73.83)" opacity="0.1"/><path d="M60.68,253.15,57.31,257s.8,3.17,3.87,3.35S65.42,259,65.42,259l.16-4.37Z" transform="translate(-53.29 -73.83)" fill="#407bff"/><path d="M60.68,253.15,57.31,257s.8,3.17,3.87,3.35S65.42,259,65.42,259l.16-4.37Z" transform="translate(-53.29 -73.83)" fill="#fff" opacity="0.3"/><path d="M81.26,237.47c-4.36,4.45-10.14,20.91-9.88,23.13s-6.33,6.07-6.33,6.07L62.44,234s4.46-3.89,6.39-4.45,6,3.92,9.32,1.15S81.26,237.47,81.26,237.47Z" transform="translate(-53.29 -73.83)" fill="#407bff"/><path d="M71.38,260.61c.15,1.23-1.83,3-3.61,4.27h0c-1.41,1-2.69,1.78-2.69,1.78L62.43,234s2.12-1.84,4.07-3.18a9.53,9.53,0,0,1,2.33-1.27c1.93-.57,6,3.92,9.31,1.15a2.32,2.32,0,0,1,.9-.49c1.2-.24,1.76,1.52,2,3.37v0a27.69,27.69,0,0,1,.21,3.88C76.9,241.92,71.13,258.38,71.38,260.61Z" transform="translate(-53.29 -73.83)" fill="#fff" opacity="0.5"/><path d="M71.38,260.61c.15,1.23-1.83,3-3.61,4.27,2.18-2.29,1.91-4.51,2.36-9.24s3.19-14,3.19-14a15.2,15.2,0,0,0-2.65-7.11c-1.56-2.4-3-3.48-4.17-3.7a9.53,9.53,0,0,1,2.33-1.27c1.93-.57,6,3.92,9.31,1.15a2.32,2.32,0,0,1,.9-.49l2,3.37v0a27.69,27.69,0,0,1,.21,3.88C76.9,241.92,71.13,258.38,71.38,260.61Z" transform="translate(-53.29 -73.83)" opacity="0.1"/><path d="M57.13,248.46s23-24.64,26.12-26.55,5.4-1.25,5.4-1.25,4.21-1,5.53-.09.29,2.53-2.51,6.37c-5.19,7.12-27.12,28.74-27.12,28.74S57.25,254.28,57.13,248.46Z" transform="translate(-53.29 -73.83)" fill="#407bff"/><path d="M92.82,225.33c-.33.49-.72,1-1.14,1.6-5.2,7.13-27.13,28.75-27.13,28.75s-7.31-1.4-7.41-7.23c0,0,23-24.63,26.12-26.53a9.12,9.12,0,0,1,3.32-1.28,5.2,5.2,0,0,1,2.07,0l.5-.12c.32-.06.76-.15,1.26-.23,1.32-.19,3-.3,3.77.25C95.3,221.39,94.72,222.63,92.82,225.33Z" transform="translate(-53.29 -73.83)" fill="#fff" opacity="0.7"/><path d="M85.16,226.71l-.53-.4a.91.91,0,0,1-.14-1.31c.84-1,2.21-2.84,2.09-4.36a5.2,5.2,0,0,1,2.07,0l.5-.12c.4,2.1-1.71,4.84-2.76,6A.9.9,0,0,1,85.16,226.71Z" transform="translate(-53.29 -73.83)" opacity="0.5"/><path d="M92.82,225.33a6.67,6.67,0,0,1-2.41-5c1.32-.19,3-.3,3.77.25C95.3,221.39,94.72,222.63,92.82,225.33Z" transform="translate(-53.29 -73.83)" opacity="0.1"/><g opacity="0.2"><path d="M66.68,250.32l-.12-.34a1.46,1.46,0,0,0,.92-.45c.36-.36.37-.66.18-.83-.51-.51-1.43,1.08-2.21.31-.32-.31-.35-.83.19-1.38a1.75,1.75,0,0,1,.85-.5l.14.34a1.39,1.39,0,0,0-.73.41c-.35.35-.36.65-.17.83.51.5,1.44-1.08,2.2-.33.33.32.35.85-.2,1.4A1.7,1.7,0,0,1,66.68,250.32Z" transform="translate(-53.29 -73.83)"/><path d="M69.53,245.17a1.06,1.06,0,0,1-.13,1.6l-.51.51.64.63-.3.3-2.09-2.06.8-.82A1.06,1.06,0,0,1,69.53,245.17Zm-.29.3c-.3-.29-.67-.26-1,.12l-.5.51.94.93.5-.51C69.51,246.13,69.53,245.77,69.24,245.47Z" transform="translate(-53.29 -73.83)"/><path d="M72.31,244l-1.1,1.12.3.74-.3.31-1.17-3,.3-.3,3,1.1-.31.32Zm-.34-.13-1.48-.55.59,1.46Z" transform="translate(-53.29 -73.83)"/><path d="M72.73,242.55a1.49,1.49,0,0,1,0-2.16,1.45,1.45,0,0,1,1.11-.48v.38a1.13,1.13,0,0,0-.83.35,1.13,1.13,0,1,0,1.61,1.58,1.09,1.09,0,0,0,.33-.84h.38a1.43,1.43,0,0,1-.46,1.13A1.48,1.48,0,0,1,72.73,242.55Z" transform="translate(-53.29 -73.83)"/><path d="M77.6,239.16l.26.26-1.5,1.52-2.09-2.06,1.45-1.48.26.26-1.16,1.18.65.63,1-1.05.25.25-1,1.05.68.67Z" transform="translate(-53.29 -73.83)"/><path d="M79.26,236.73a1,1,0,0,1-.13,1.44,1.63,1.63,0,0,1-1,.52l-.1-.37a1.29,1.29,0,0,0,.84-.41c.31-.32.34-.64.12-.86s-.53-.23-1,.26l-.47.47-1-1.19,1.17-1.18.26.26-.92.93.52.62.23-.23C78.38,236.36,78.89,236.37,79.26,236.73Z" transform="translate(-53.29 -73.83)"/><path d="M79.79,233.25l.21.2,1.06,2.71-.32.32-1-2.63-.94,1,.38.37-.28.29-.64-.62Z" transform="translate(-53.29 -73.83)"/></g><path d="M81.44,229.07l.72-.75a.89.89,0,0,1,1.21-.06L85.48,230a.88.88,0,0,1,.06,1.3l-.78.8a.89.89,0,0,1-1.23,0l-2-1.82A.89.89,0,0,1,81.44,229.07Z" transform="translate(-53.29 -73.83)" opacity="0.1"/></g><g id="ae1e3ce4-58c9-43b6-9365-493b5dd56953" data-name="Speech bubble"><path d="M327.79,368.62H285.05a8.84,8.84,0,0,1-8.84-8.85v-15a8.84,8.84,0,0,1,8.84-8.84h28.4l7-8.9-1,8.9h8.39a8.84,8.84,0,0,1,8.85,8.84v15A8.85,8.85,0,0,1,327.79,368.62Z" transform="translate(-53.29 -73.83)" fill="#407bff"/><path d="M287.14,351.55a5.07,5.07,0,1,1,5.09,4.88A4.86,4.86,0,0,1,287.14,351.55Zm8.78,0a3.71,3.71,0,1,0-3.69,3.67A3.58,3.58,0,0,0,295.92,351.55Z" transform="translate(-53.29 -73.83)" fill="#fff"/><path d="M298.51,352.71a3.75,3.75,0,1,1,3.76,3.69A3.59,3.59,0,0,1,298.51,352.71Zm6.18,0a2.43,2.43,0,1,0-4.86,0,2.43,2.43,0,1,0,4.86,0Z" transform="translate(-53.29 -73.83)" fill="#fff"/><path d="M315.31,352.71a3.51,3.51,0,0,1-3.66,3.69,3.07,3.07,0,0,1-2.52-1.17V359h-1.31V349.1h1.26v1.15a3.05,3.05,0,0,1,2.57-1.22A3.51,3.51,0,0,1,315.31,352.71Zm-1.33,0a2.43,2.43,0,1,0-2.44,2.55A2.39,2.39,0,0,0,314,352.71Z" transform="translate(-53.29 -73.83)" fill="#fff"/><path d="M316.2,355.56l.55-1a4.59,4.59,0,0,0,2.53.75c1.22,0,1.72-.36,1.72-1,0-1.62-4.56-.22-4.56-3.09,0-1.3,1.15-2.17,3-2.17a5.25,5.25,0,0,1,2.63.66l-.56,1a3.82,3.82,0,0,0-2.09-.57c-1.14,0-1.7.42-1.7,1,0,1.71,4.58.32,4.58,3.12,0,1.31-1.2,2.14-3.12,2.14A5.21,5.21,0,0,1,316.2,355.56Z" transform="translate(-53.29 -73.83)" fill="#fff"/><path d="M323.64,355.53a.87.87,0,0,1,.9-.87.87.87,0,0,1,0,1.74A.87.87,0,0,1,323.64,355.53Zm.13-8.75h1.53l-.25,6.53h-1Z" transform="translate(-53.29 -73.83)" fill="#fff"/></g><g id="af4a779b-644a-4c9f-b884-0df56e5299d7" data-name="Text"><path d="M182.22,289.79l-10.29,2.78,3.6,13.3-7.5,2-3.6-13.3-30.08,8.15-1.46-5.42L151,254.42l8.35-2.26-17.27,41.36,20.8-5.63-3.18-11.75,7.27-2,3.18,11.75,10.29-2.78Z" transform="translate(-53.29 -73.83)" fill="#407bff"/><path d="M183.13,274.77c-4.78-17.63,1.94-30.24,14.62-33.67s24.76,4.09,29.53,21.72-1.94,30.23-14.55,33.64S187.9,292.4,183.13,274.77Zm36.42-9.86C215.8,251.07,208,245.7,199.61,248s-12.5,10.85-8.75,24.69,11.51,19.21,20,16.91S223.29,278.75,219.55,264.91Z" transform="translate(-53.29 -73.83)" fill="#407bff"/><path d="M285.51,261.82l-10.28,2.79,3.6,13.3-7.5,2-3.6-13.3-30.08,8.14-1.47-5.41,18.1-42.91,8.35-2.26-17.27,41.36,20.8-5.64L263,248.17l7.27-2L273.43,258l10.28-2.79Z" transform="translate(-53.29 -73.83)" fill="#407bff"/><path d="M149.44,231.34l1.32,4.84-20.2,5.47-7.06-26.09,19.71-5.33,1.31,4.84-13.71,3.71,1.53,5.67,12.11-3.28,1.27,4.69-12.11,3.28,1.64,6Z" transform="translate(-53.29 -73.83)" fill="#407bff"/><path d="M172.18,230.38l-7-5.91-.3.09L159.63,226l2,7.27-6,1.63-7.06-26.09,11.29-3c7-1.89,12.31.55,13.89,6.4a8.78,8.78,0,0,1-3.13,9.68l8.12,6.81Zm-11.39-19.63-4.92,1.33,2.46,9.09,4.92-1.33c3.69-1,5.09-3.22,4.32-6.05S164.48,209.75,160.79,210.75Z" transform="translate(-53.29 -73.83)" fill="#407bff"/><path d="M199.57,223l-7-5.91-.3.08L187,218.56l2,7.27-6,1.64-7.06-26.09,11.29-3.06c7-1.88,12.31.55,13.89,6.4a8.8,8.8,0,0,1-3.13,9.69l8.12,6.8Zm-11.39-19.64-4.92,1.33,2.46,9.1,4.92-1.33c3.69-1,5.09-3.22,4.32-6.05S191.87,202.33,188.18,203.33Z" transform="translate(-53.29 -73.83)" fill="#407bff"/><path d="M205.17,207.45c-2.1-7.75,2.39-15.12,10.62-17.35s15.82,1.84,17.93,9.62-2.43,15.14-10.62,17.36S207.27,215.2,205.17,207.45Zm22.43-6.07a8.46,8.46,0,1,0-5.9,10.56A8.24,8.24,0,0,0,227.6,201.38Z" transform="translate(-53.29 -73.83)" fill="#407bff"/><path d="M258.41,207l-7-5.91-.3.08-5.26,1.42,2,7.27-6,1.64-7.06-26.09L246,182.39c7-1.88,12.31.55,13.89,6.4a8.78,8.78,0,0,1-3.13,9.69l8.12,6.8ZM247,187.4l-4.92,1.34,2.46,9.09,4.92-1.33c3.69-1,5.09-3.22,4.32-6.05S250.71,186.41,247,187.4Z" transform="translate(-53.29 -73.83)" fill="#407bff"/></g><g id="f269c0d5-c4b7-4f7a-9f67-2e612966b476" data-name="Character"><path d="M347.89,246.78l31.92-2.31.28-1.25c1-4.92,4.78-23.4,4.19-35.15a24.72,24.72,0,0,0-.95-6.18c-3.9-12.12-42.18-36.55-42.18-36.55L339.29,180l22.5,28.18C354.88,223.76,347.89,246.78,347.89,246.78Z" transform="translate(-53.29 -73.83)" fill="#407bff"/><path d="M347.89,246.78l31.92-2.31.28-1.25c1-4.92,4.78-23.4,4.19-35.15a24.72,24.72,0,0,0-.95-6.18c-3.9-12.12-42.18-36.55-42.18-36.55L339.29,180l22.5,28.18C354.88,223.76,347.89,246.78,347.89,246.78Z" transform="translate(-53.29 -73.83)" fill="#fff" opacity="0.7"/><path d="M322.16,287.11c-4,2.73-8,5.66-12,8.46-2,1.43-4,2.8-5.92,4.15s-3.92,2.64-5.66,3.67c-.42.26-.85.5-1.17.68s-.57.28-.51.32a1.42,1.42,0,0,1,.36,0h.09l-.1,0-.2,0-.82.15-1.69.31c-2.29.42-4.7.76-7.12,1.16-4.84.77-9.82,1.52-14.75,2.62l-.09,0a4.58,4.58,0,0,0-.12,8.9,103.06,103.06,0,0,0,15.35,2.55c2.59.25,5.21.38,7.92.43.68,0,1.35,0,2.06,0l1.05,0h.4l.32,0c.43-.06.86-.14,1.29-.22a23.85,23.85,0,0,0,3-.94c.83-.31,1.54-.62,2.24-.92,2.74-1.24,5-2.53,7.38-3.84s4.5-2.69,6.69-4.07c4.35-2.82,8.53-5.67,12.64-8.87A9,9,0,0,0,322.26,287Z" transform="translate(-53.29 -73.83)" fill="#407bff"/><path d="M322.16,287.11c-4,2.73-8,5.66-12,8.46-2,1.43-4,2.8-5.92,4.15s-3.92,2.64-5.66,3.67c-.42.26-.85.5-1.17.68s-.57.28-.51.32a1.42,1.42,0,0,1,.36,0h.09l-.1,0-.2,0-.82.15-1.69.31c-2.29.42-4.7.76-7.12,1.16-4.84.77-9.82,1.52-14.75,2.62l-.09,0a4.58,4.58,0,0,0-.12,8.9,103.06,103.06,0,0,0,15.35,2.55c2.59.25,5.21.38,7.92.43.68,0,1.35,0,2.06,0l1.05,0h.4l.32,0c.43-.06.86-.14,1.29-.22a23.85,23.85,0,0,0,3-.94c.83-.31,1.54-.62,2.24-.92,2.74-1.24,5-2.53,7.38-3.84s4.5-2.69,6.69-4.07c4.35-2.82,8.53-5.67,12.64-8.87A9,9,0,0,0,322.26,287Z" transform="translate(-53.29 -73.83)" fill="#fff" opacity="0.7"/><path d="M296.93,304.39s6.47,9.73,5,15.56l2-.66s-.54-10.72-6.47-15.22Z" transform="translate(-53.29 -73.83)" fill="#407bff"/><path d="M270.72,309.13l-8.67,1.08,5.23,8.16s7.67-1.43,6.77-5.36Z" transform="translate(-53.29 -73.83)" fill="#407bff"/><polygon points="201.98 241.76 208.85 247.25 213.98 244.54 208.75 236.38 201.98 241.76" fill="#407bff"/><g opacity="0.5"><path d="M270.72,309.13l-8.67,1.08,5.23,8.16s7.67-1.43,6.77-5.36Z" transform="translate(-53.29 -73.83)" fill="#fff"/><polygon points="201.98 241.76 208.85 247.25 213.98 244.54 208.75 236.38 201.98 241.76" fill="#fff"/></g><path d="M270.72,309.13s3.55,4.33.6,8l1.17.48s4.71-3,.21-8.92Z" transform="translate(-53.29 -73.83)" fill="#407bff"/><path d="M296.93,304.39s6.47,9.73,5,15.56l2-.66s-.54-10.72-6.47-15.22Z" transform="translate(-53.29 -73.83)" fill="#fff" opacity="0.4"/><path d="M270.72,309.13s3.55,4.33.6,8l1.17.48s4.71-3,.21-8.92Z" transform="translate(-53.29 -73.83)" fill="#fff" opacity="0.4"/><path d="M343,170.26l-1.46,8.5c0,.42-1.83,1.31-2.26,1.28h0l-9.63-.54a1.92,1.92,0,0,1-1.68-2.11c.57-4.2,1-6.18,1.72-11.48.4-3.26.87-9.74,2.11-14.11s5.53-3,5.39-1.07c-.32,4.65,1.93,11.3,3.95,14.61C341.5,165.92,343.11,169.59,343,170.26Z" transform="translate(-53.29 -73.83)" fill="#407bff"/><path d="M343.86,170.79l-2.94,8.72c0,.42-1.19.56-1.62.53h0l-9.63-.54a1.92,1.92,0,0,1-1.68-2.11c.57-4.2,1-6.18,1.72-11.48.4-3.26.87-9.74,2.11-14.11s5.53-3,5.39-1.07c-.32,4.65,1.93,11.3,3.95,14.61C341.5,165.92,343.94,170.12,343.86,170.79Z" transform="translate(-53.29 -73.83)" fill="#fff" opacity="0.5"/><path d="M380.09,243.22c1-4.92,4.78-23.4,4.19-35.15C381.42,212.91,375,225,374,237.46,373.45,243.66,376.27,244.93,380.09,243.22Z" transform="translate(-53.29 -73.83)" opacity="0.1"/><path d="M349.78,251.82s2.64-19,22.59-22.49c0,0,14.38-18.34,32.46-36.74l-9.67-50.37L405.61,137s22.2,37.77,18.92,62.44-39.8,59.67-39.8,59.67Z" transform="translate(-53.29 -73.83)" fill="#407bff"/><path d="M349.78,251.82s2.64-19,22.59-22.49c0,0,14.38-18.34,32.46-36.74l-9.67-50.37L405.61,137s22.2,37.77,18.92,62.44-39.8,59.67-39.8,59.67Z" transform="translate(-53.29 -73.83)" fill="#fff" opacity="0.7"/><path d="M383.18,232.13a6.83,6.83,0,0,1-6.36,6.8l-24,1.67a6.83,6.83,0,0,1-7-4.77,6.72,6.72,0,0,1-.3-1.57c0-.16,0-.32,0-.48a6.82,6.82,0,0,1,6.35-6.8l24-1.67a6.84,6.84,0,0,1,7.28,6.34C383.17,231.81,383.18,232,383.18,232.13Z" transform="translate(-53.29 -73.83)" fill="#407bff"/><path d="M382,230a6.83,6.83,0,0,1-6.35,6.8l-24,1.67a6.81,6.81,0,0,1-5.83-2.59,6.72,6.72,0,0,1-.3-1.57c0-.16,0-.32,0-.48a6.82,6.82,0,0,1,6.35-6.8l24-1.67a6.81,6.81,0,0,1,5.83,2.59,6.72,6.72,0,0,1,.3,1.57C382,229.63,382,229.79,382,230Z" transform="translate(-53.29 -73.83)" fill="#fff" opacity="0.2"/><path d="M386.82,261a17.16,17.16,0,0,0-12.15-16.11c-12.53-4.3-10.71,11.29-10.71,11.29l22.34,5.74Z" transform="translate(-53.29 -73.83)" fill="#407bff"/><path d="M386.82,261a17.16,17.16,0,0,0-12.15-16.11c-12.53-4.3-10.71,11.29-10.71,11.29l22.34,5.74Z" transform="translate(-53.29 -73.83)" fill="#fff" opacity="0.4"/><path d="M370.88,245.84s12.63,3,15.18,13.34-15.16,33-22.53,37-36.83,7.87-40.33,3.66C311.14,285.34,337,261.81,345.89,256S370.88,245.84,370.88,245.84Z" transform="translate(-53.29 -73.83)" fill="#407bff"/><path d="M323.2,299.86a2.38,2.38,0,0,0,.58.49c2.29,1.46,8.63,1.61,15.68,1,8.87-.77,18.87-2.73,23.35-4.81l.72-.35c5.69-3.11,17.56-17.35,21.49-28.42,1.16-3.26,1.62-6.25,1-8.6-2.55-10.32-15.18-13.34-15.18-13.34s-16.09,4.43-25,10.2S311.14,285.33,323.2,299.86Z" transform="translate(-53.29 -73.83)" fill="#fff" opacity="0.7"/><path d="M323.78,300.35c2.29,1.46,8.63,1.61,15.68,1,14.56-15.67,6.25-27.7,6.25-27.7C333.46,272.54,324.85,289.39,323.78,300.35Z" transform="translate(-53.29 -73.83)" opacity="0.1"/><path d="M380.09,243.22S378,232.3,375.5,231s-29.22,1.07-32.64,2.36-21.9,17.45-23.14,22,4.36,16.38,4.36,16.38,19.12,3.82,26.92.57S378.08,249.2,380.09,243.22Z" transform="translate(-53.29 -73.83)" fill="#407bff"/><path d="M324.08,271.73s19.12,3.81,26.92.56,27.09-23.08,29.08-29.07c0,0-2.13-10.92-4.58-12.26s-29.21,1.08-32.64,2.36-21.9,17.46-23.13,22a9.83,9.83,0,0,0,.1,4.19C320.82,264.82,324.08,271.73,324.08,271.73Z" transform="translate(-53.29 -73.83)" fill="#fff" opacity="0.5"/><path d="M319.83,259.53c2.59.49,19.4,3.51,26.59.51C354.21,256.78,373.5,237,375.5,231c-2.45-1.33-29.21,1.08-32.64,2.36s-21.9,17.46-23.13,22A9.83,9.83,0,0,0,319.83,259.53Z" transform="translate(-53.29 -73.83)" fill="#fff" opacity="0.2"/><circle cx="320.61" cy="279.24" r="24.92" transform="translate(-157.85 206.14) rotate(-41.15)" fill="#263238"/><circle cx="320.61" cy="279.24" r="24.92" transform="translate(-157.85 206.14) rotate(-41.15)" fill="#fff" opacity="0.7"/><path d="M329,301.64a23.92,23.92,0,1,0-30.78-14A23.93,23.93,0,0,0,329,301.64Z" transform="translate(-53.29 -73.83)" opacity="0.2"/><ellipse cx="332.06" cy="282.78" rx="17.98" ry="13.42" transform="translate(-75.86 462.86) rotate(-76.02)" opacity="0.3"/><path d="M324,291.76s4.66,4.59,6.05,3.44,4.08,2.39,6.33.38,6.66-7.88,4.43-13.4S324.49,283.49,324,291.76Z" transform="translate(-53.29 -73.83)" fill="#263238"/><path d="M324,291.76s4.67,4.59,6.05,3.44a1.45,1.45,0,0,1,1.44-.1c1.42.49,3.27,1.93,4.89.48,2.25-2,6.65-7.88,4.43-13.4-.95-2.37-4.09-2.46-7.41-1.15a17.35,17.35,0,0,0-2.59,1.29c-3.38,2.06-6.38,5.39-6.78,9C324.05,291.48,324,291.63,324,291.76Z" transform="translate(-53.29 -73.83)" fill="#fff" opacity="0.8"/><path d="M324,291.76s4.67,4.59,6.05,3.44a1.45,1.45,0,0,1,1.44-.1c5.55-3.32,3-11.27,1.91-14.07a17.35,17.35,0,0,0-2.59,1.29,51.1,51.1,0,0,0-6.78,9C324.05,291.48,324,291.63,324,291.76Z" transform="translate(-53.29 -73.83)" opacity="0.2"/><path d="M314,291.38a2.83,2.83,0,0,0,.51,0c4.78-.23,3.45-9.8,1.13-15.27-1-2.42-2.43-3.53-3.7-3.59-1.62-.09-3,1.49-3.3,4.17-.18,1.8,1,4.27.8,5.47S309.73,291,314,291.38Z" transform="translate(-53.29 -73.83)" fill="#263238"/><path d="M314,291.38a2.83,2.83,0,0,0,.51,0c4.78-.23,3.45-9.8,1.13-15.27-1-2.42-2.43-3.53-3.7-3.59-1.62-.09-3,1.49-3.3,4.17-.18,1.8,1,4.27.8,5.47S309.73,291,314,291.38Z" transform="translate(-53.29 -73.83)" fill="#fff" opacity="0.9"/><path d="M314,291.38a2.83,2.83,0,0,0,.51,0c4.78-.23,3.45-9.8,1.13-15.27-1-2.42-2.43-3.53-3.7-3.59a8,8,0,0,0-1,.86c-1.59,1.57,0,7.67,0,9.27C310.83,284.12,311.38,289,314,291.38Z" transform="translate(-53.29 -73.83)" opacity="0.2"/><path d="M331.13,275.2c1.84,7.22,3.28,11.36.86,16.11-3.65,7.15-13.48,6.63-17.45.09-3.57-5.89-6-16.71.08-21.69A10.28,10.28,0,0,1,331.13,275.2Z" transform="translate(-53.29 -73.83)" fill="#ebb376"/><path d="M321,280.53c.18.58,0,1.14-.35,1.26s-.84-.25-1-.83,0-1.14.35-1.26S320.78,280,321,280.53Z" transform="translate(-53.29 -73.83)" fill="#263238"/><path d="M314.42,282.57c.18.57,0,1.14-.35,1.26s-.84-.26-1-.84,0-1.14.35-1.25S314.23,282,314.42,282.57Z" transform="translate(-53.29 -73.83)" fill="#263238"/><path d="M316.59,282.21a21,21,0,0,1-1.28,5.63,3.57,3.57,0,0,0,2.9-.39Z" transform="translate(-53.29 -73.83)" fill="#d58745"/><path d="M319.1,276.71a.4.4,0,0,1,.37,0,2.88,2.88,0,0,0,2.55.38.36.36,0,0,1,.47.19.34.34,0,0,1-.18.46,3.58,3.58,0,0,1-3.24-.44.36.36,0,0,1-.1-.49A.49.49,0,0,1,319.1,276.71Z" transform="translate(-53.29 -73.83)" fill="#263238"/><path d="M312.41,278.28a.37.37,0,0,1,.21,0,.35.35,0,0,1,.24.44,3.53,3.53,0,0,1-2.2,2.37.38.38,0,0,1-.45-.24.35.35,0,0,1,.24-.44,2.77,2.77,0,0,0,1.73-1.9A.32.32,0,0,1,312.41,278.28Z" transform="translate(-53.29 -73.83)" fill="#263238"/><path d="M323.64,291.05c-.16.11-.34.22-.52.32l-3.51-1.78s.13-.2.35-.49c.72-1,2.45-3.14,4-3a2.8,2.8,0,0,1,.52.13,2.73,2.73,0,0,1,1.5,1.17C326.45,288.29,326.14,289.51,323.64,291.05Z" transform="translate(-53.29 -73.83)" fill="#263238"/><path d="M324.5,286.28l-4.09,3-.45-.15c.72-1,2.45-3.14,4-3A2.8,2.8,0,0,1,324.5,286.28Z" transform="translate(-53.29 -73.83)" fill="#fff"/><path d="M323.64,291.05c-.67-1.47,1.16-2.9,2.36-3.6C326.45,288.29,326.14,289.51,323.64,291.05Z" transform="translate(-53.29 -73.83)" fill="#de5753"/><path d="M331.12,285.82s-2.83,5.44-3.93,6.63-4.52,2.32-4.52,2.32" transform="translate(-53.29 -73.83)" fill="none" stroke="#263238" stroke-miterlimit="10"/><path d="M322.87,295.44l1.05-.4a.71.71,0,0,0,.42-.91h0a.72.72,0,0,0-.92-.41l-1.05.39a.71.71,0,0,0-.41.91h0A.71.71,0,0,0,322.87,295.44Z" transform="translate(-53.29 -73.83)" fill="#263238"/><path d="M335.75,280.22a7,7,0,0,1-2.07,5c-1.77,1.73-3.87.42-4.38-1.87-.47-2.07-.11-5.45,2.16-6.32A3.21,3.21,0,0,1,335.75,280.22Z" transform="translate(-53.29 -73.83)" fill="#ebb376"/><path d="M314.85,272.22c2.2-.7,7.95-1.67,9.23-.5s3.95,15.17,6.81,16,7.9-3.87,7.48-8.11a9.5,9.5,0,0,0-3.06-6.3s-.76-11.14-12.37-10.28-14.43,10.36-14.27,13.68A12.21,12.21,0,0,1,314.85,272.22Z" transform="translate(-53.29 -73.83)" fill="#263238"/><path d="M314.85,272.22c2.2-.7,7.95-1.67,9.23-.5s3.95,15.17,6.81,16,7.9-3.87,7.48-8.11a9.5,9.5,0,0,0-3.06-6.3s-.76-11.14-12.37-10.28-14.43,10.36-14.27,13.68A12.21,12.21,0,0,1,314.85,272.22Z" transform="translate(-53.29 -73.83)" fill="#fff" opacity="0.9"/><path d="M305.89,258.14l1.54-.42a28.69,28.69,0,0,1,14.6-4.26c8.94-.27,22.11,7.83,24.34,23.52.09.6.15,1.15.19,1.66a12,12,0,0,1,.09,1.37v.05a11.13,11.13,0,0,1-.07,1.71c-.82,9.43-8.66,16.53-8.66,16.53a30.74,30.74,0,0,1-10.2,6.33L326,303.58c16.07-6.46,13.62-24.06,13.62-24.06l-5.46-10.33s-14.61-16.61-31.84-6.83l-.71-.62A30.78,30.78,0,0,1,305.89,258.14Z" transform="translate(-53.29 -73.83)" fill="#407bff"/><path d="M301.58,261.74l.7.61c17.24-9.77,31.84,6.84,31.84,6.84l5.46,10.33S342,297.12,326,303.58l1.77,1.06a31.39,31.39,0,0,0,4.58-2.18,26.78,26.78,0,0,0,5.61-4.16s7.84-7.1,8.66-16.53a10,10,0,0,0,.07-1.71.13.13,0,0,1,0-.06c0-.47-.05-.92-.1-1.36s-.1-1.05-.19-1.66c-2.22-15.7-15.4-23.79-24.34-23.52a28.89,28.89,0,0,0-14.51,4.2l-.09.06-1.54.42A30.48,30.48,0,0,0,301.58,261.74Z" transform="translate(-53.29 -73.83)" fill="#fff" opacity="0.7"/><path d="M301.58,261.74l.7.61c17.24-9.77,31.84,6.84,31.84,6.84l5.46,10.33S342,297.12,326,303.58l1.77,1.06a31.39,31.39,0,0,0,4.58-2.18c4.32-3.86,11.49-15.85,8.29-22.39A65.22,65.22,0,0,1,336,267.83s-12.91-14.15-28.5-10.17c-.53.13-1.08.3-1.63.48A30.48,30.48,0,0,0,301.58,261.74Z" transform="translate(-53.29 -73.83)" opacity="0.2"/><path d="M335.12,268c1.72-.64,3.72.05,5.4,1.63a7.59,7.59,0,0,1,3.53,9.45c-.23,2.29-1.28,4.12-3,4.77-2.9,1.08-6.57-1.59-8.21-6S332.23,269.12,335.12,268Z" transform="translate(-53.29 -73.83)" fill="#407bff"/><path d="M335.12,268c1.72-.64,3.72.05,5.4,1.63a7.59,7.59,0,0,1,3.53,9.45c-.23,2.29-1.28,4.12-3,4.77-2.9,1.08-6.57-1.59-8.21-6S332.23,269.12,335.12,268Z" transform="translate(-53.29 -73.83)" fill="#fff" opacity="0.5"/><path d="M336.83,276.43c1.13,3,3.67,4.87,5.68,4.12s2.7-3.81,1.57-6.84-3.67-4.87-5.67-4.12S335.7,273.4,336.83,276.43Z" transform="translate(-53.29 -73.83)" fill="#fff" opacity="0.2"/><path d="M301.36,268.77a34.46,34.46,0,0,1,5.19,1.13,32.13,32.13,0,0,1,7.64-7.51s-2.68-1.26-7.8-.08A22.32,22.32,0,0,0,301.36,268.77Z" transform="translate(-53.29 -73.83)" fill="#fff" opacity="0.2"/><path d="M300.14,287.42a34.6,34.6,0,0,1,5.37-16c-1.64-.72-3.23-1.38-4.52-1.88C298.81,274.28,297.2,280.81,300.14,287.42Z" transform="translate(-53.29 -73.83)" fill="#fff" opacity="0.2"/><path d="M406.66,139.11l-10.21,6.58a.76.76,0,0,1-1.07-.18h0l-5.71-7.77a1.91,1.91,0,0,1,.55-2.63c3.6-2.24,5.44-3.13,10-6,2.77-1.77,8.06-5.53,12.22-7.36s5.86,2.34,4.26,3.48c-3.79,2.72-7.48,8.68-8.75,12.35A3,3,0,0,1,406.66,139.11Z" transform="translate(-53.29 -73.83)" fill="#407bff"/><path d="M406.66,139.11l-10.21,6.58a.76.76,0,0,1-1.07-.18h0l-5.71-7.77a1.91,1.91,0,0,1,.55-2.63c3.6-2.24,5.44-3.13,10-6,2.77-1.77,8.06-5.53,12.22-7.36s5.86,2.34,4.26,3.48c-3.79,2.72-7.48,8.68-8.75,12.35A3,3,0,0,1,406.66,139.11Z" transform="translate(-53.29 -73.83)" fill="#fff" opacity="0.5"/><polygon points="354.37 64.24 355.15 66.33 342.07 72.83 341.42 71.08 354.37 64.24" fill="#407bff"/><path d="M341,165s3.06,9.84-2.31,15.37l1.84,1.17s6.6-6.74,2.61-15.38Z" transform="translate(-53.29 -73.83)" fill="#407bff"/><path d="M404.17,193.26l.4-2s8.61-5.86,20.23.48l0,4.28S415,189.13,404.17,193.26Z" transform="translate(-53.29 -73.83)" fill="#407bff"/><path d="M382.35,199.25s-10.66,14.29-21,10l-.34-2s9.33,3.46,19.31-10.51Z" transform="translate(-53.29 -73.83)" fill="#407bff"/><path d="M362.81,296.55l.72-.35c5.69-3.11,17.56-17.35,21.49-28.42-6,1.62-21.34,6.05-26.11,10.58C353.26,283.72,356,294.77,362.81,296.55Z" transform="translate(-53.29 -73.83)" opacity="0.1"/><path d="M341,165s3.06,9.84-2.31,15.37l1.84,1.17s6.6-6.74,2.61-15.38Z" transform="translate(-53.29 -73.83)" fill="#fff" opacity="0.4"/><path d="M382.35,199.25s-10.66,14.29-21,10l-.34-2s9.33,3.46,19.31-10.51Z" transform="translate(-53.29 -73.83)" fill="#fff" opacity="0.4"/><polygon points="354.37 64.24 355.15 66.33 342.07 72.83 341.42 71.08 354.37 64.24" fill="#fff" opacity="0.4"/><path d="M404.17,193.26l.4-2s8.61-5.86,20.23.48l0,4.28S415,189.13,404.17,193.26Z" transform="translate(-53.29 -73.83)" fill="#fff" opacity="0.4"/><path d="M373.59,246.78s25.06,22.66,6.5,32.9" transform="translate(-53.29 -73.83)" fill="none" stroke="#407bff" stroke-linecap="round" stroke-linejoin="round" stroke-width="3"/><path d="M368.54,254.32S389,269,378.33,285.48" transform="translate(-53.29 -73.83)" fill="none" stroke="#407bff" stroke-linecap="round" stroke-linejoin="round" stroke-width="3"/><path d="M363.49,295.77c4.71-1.07,9.54-2.3,14.26-3.43,2.36-.59,4.71-1.13,7-1.66s4.62-1,6.62-1.32c.49-.08,1-.15,1.34-.19s.63-.06.59-.12A1.06,1.06,0,0,1,393,289l-.09,0,.1,0,.21,0,.81.16,1.69.34c2.28.46,4.64,1,7,1.56,4.78,1.07,9.69,2.22,14.68,3l.08,0a4.58,4.58,0,0,0,3.41-8.22,101.63,101.63,0,0,0-13.32-8.05c-2.31-1.2-4.69-2.29-7.19-3.33-.63-.27-1.25-.52-1.92-.75l-1-.36-.25-.09-.13,0-.31-.08c-.42-.1-.85-.19-1.28-.27a23,23,0,0,0-3.16-.25c-.89,0-1.66,0-2.42,0-3,.13-5.63.48-8.28.83s-5.18.83-7.72,1.3c-5.09,1-10,2.12-15,3.57a9,9,0,0,0,4.47,17.44Z" transform="translate(-53.29 -73.83)" fill="#407bff"/><path d="M363.49,295.77c4.71-1.07,9.54-2.3,14.26-3.43,2.36-.59,4.71-1.13,7-1.66s4.62-1,6.62-1.32c.49-.08,1-.15,1.34-.19s.63-.06.59-.12A1.06,1.06,0,0,1,393,289l-.09,0,.1,0,.21,0,.81.16,1.69.34c2.28.46,4.64,1,7,1.56,4.78,1.07,9.69,2.22,14.68,3l.08,0a4.58,4.58,0,0,0,3.41-8.22,101.63,101.63,0,0,0-13.32-8.05c-2.31-1.2-4.69-2.29-7.19-3.33-.63-.27-1.25-.52-1.92-.75l-1-.36-.25-.09-.13,0-.31-.08c-.42-.1-.85-.19-1.28-.27a23,23,0,0,0-3.16-.25c-.89,0-1.66,0-2.42,0-3,.13-5.63.48-8.28.83s-5.18.83-7.72,1.3c-5.09,1-10,2.12-15,3.57a9,9,0,0,0,4.47,17.44Z" transform="translate(-53.29 -73.83)" fill="#fff" opacity="0.7"/><path d="M419.38,287l8.7-.8-3.36,9.08s-7.81.25-7.76-3.78Z" transform="translate(-53.29 -73.83)" fill="#407bff"/><polygon points="382.55 216.15 377.01 222.98 371.42 221.42 374.79 212.34 382.55 216.15" fill="#407bff"/><g opacity="0.5"><path d="M419.38,287l8.7-.8-3.36,9.08s-7.81.25-7.76-3.78Z" transform="translate(-53.29 -73.83)" fill="#fff"/><polygon points="382.55 216.15 377.01 222.98 371.42 221.42 374.79 212.34 382.55 216.15" fill="#fff"/></g><path d="M422.05,286.72s-4.78,2.5-3.35,7.39l-2-.17s-2.44-4.8,4.25-8.08Z" transform="translate(-53.29 -73.83)" fill="#407bff"/><path d="M361,277.55s-13.33,10.9,1.41,18.41l-1.74.65s-8.05-.36-8.24-9.33C352.23,278.54,361,277.55,361,277.55Z" transform="translate(-53.29 -73.83)" fill="#407bff"/><path d="M395.52,272.88s-4.59,5.94-2.19,16.17l-1.22.2a21.6,21.6,0,0,1,2-16.53Z" transform="translate(-53.29 -73.83)" fill="#407bff"/><path d="M422.05,286.72s-4.78,2.5-3.35,7.39l-2-.17s-2.44-4.8,4.25-8.08Z" transform="translate(-53.29 -73.83)" fill="#fff" opacity="0.4"/><path d="M361,277.55s-13.33,10.9,1.41,18.41l-1.74.65s-8.05-.36-8.24-9.33C352.23,278.54,361,277.55,361,277.55Z" transform="translate(-53.29 -73.83)" fill="#fff" opacity="0.4"/><path d="M395.52,272.88s-4.59,5.94-2.19,16.17l-1.22.2a21.6,21.6,0,0,1,2-16.53Z" transform="translate(-53.29 -73.83)" fill="#fff" opacity="0.4"/><path d="M367.75,234.93l-20.23,19.39h-7.07L361,234.93S365.08,232.26,367.75,234.93Z" transform="translate(-53.29 -73.83)" fill="#407bff"/><path d="M367.75,234.93l-20.23,19.39a5.24,5.24,0,0,0-7.07,0L361,234.93S365.08,232.26,367.75,234.93Z" transform="translate(-53.29 -73.83)" fill="#fff" opacity="0.2"/><path d="M345.32,236.66a6.12,6.12,0,0,1-1,.55,5.36,5.36,0,0,1-1.88.42c-.74,0-1.3-.21-1.49-.64s.21-1.28,1-1.89a5.5,5.5,0,0,1,1.18-.66,4.79,4.79,0,0,1,1.67-.41c.84-.07,1.49.15,1.69.63S346.24,236,345.32,236.66Z" transform="translate(-53.29 -73.83)" fill="#263238"/><path d="M294.4,160.56s2.44-.4,3.3-1.85" transform="translate(-53.29 -73.83)" fill="none" stroke="#fff" stroke-miterlimit="10" stroke-width="0.5"/><path d="M294.4,161.75a15.8,15.8,0,0,1,6.26-2.11" transform="translate(-53.29 -73.83)" fill="none" stroke="#fff" stroke-miterlimit="10" stroke-width="0.5"/><path d="M298.75,161.42s-1.32-.73-4.35.72" transform="translate(-53.29 -73.83)" fill="none" stroke="#fff" stroke-miterlimit="10" stroke-width="0.5"/><path d="M345.32,236.66a6.12,6.12,0,0,1-1,.55,5.36,5.36,0,0,1-1.88.42c-.09-.65-.23-1.53-.46-2.53a18.53,18.53,0,0,0-4.33-8.76c-6.68-6.81-14.69-7.35-23.17-7.91-8.11-.54-16.5-1.1-24.09-7.21-7.74-6.23-11.61-17.91-9.88-29.76,1.56-10.63,7.18-18.88,15.05-22.09l1.13,2.78c-6.87,2.8-11.81,10.18-13.21,19.75-1.58,10.81,1.87,21.4,8.79,27s14.41,6,22.41,6.55c8.66.58,17.63,1.18,25.12,8.81a21.29,21.29,0,0,1,5,9.79C345.05,235,345.21,235.92,345.32,236.66Z" transform="translate(-53.29 -73.83)" fill="#263238"/><g opacity="0.5"><path d="M345.32,236.66a6.12,6.12,0,0,1-1,.55,5.36,5.36,0,0,1-1.88.42c-.09-.65-.23-1.53-.46-2.53a18.53,18.53,0,0,0-4.33-8.76c-6.68-6.81-14.69-7.35-23.17-7.91-8.11-.54-16.5-1.1-24.09-7.21-7.74-6.23-11.61-17.91-9.88-29.76,1.56-10.63,7.18-18.88,15.05-22.09l1.13,2.78c-6.87,2.8-11.81,10.18-13.21,19.75-1.58,10.81,1.87,21.4,8.79,27s14.41,6,22.41,6.55c8.66.58,17.63,1.18,25.12,8.81a21.29,21.29,0,0,1,5,9.79C345.05,235,345.21,235.92,345.32,236.66Z" transform="translate(-53.29 -73.83)" fill="#fff"/></g></g></svg>