<?xml version="1.0" encoding="iso-8859-1"?>
<!-- Generator: Adobe Illustrator 19.0.0, SVG Export Plug-In . SVG Version: 6.00 Build 0)  -->
<svg fill="currentColor" version="1.1" id="Layer_1" xmlns="http://www.w3.org/2000/svg" xmlns:xlink="http://www.w3.org/1999/xlink" x="0px" y="0px" 
	 viewBox="0 0 464.649 464.649" style="enable-background:new 0 0 464.649 464.649;" xml:space="preserve">
<g>
	<polygon points="350.182,69.419 28.586,69.419 5.237,122.381 373.531,122.381 	"/>
	<path d="M311.298,240.185c-39.443,0-71.533,32.089-71.533,71.533s32.09,71.533,71.533,71.533s71.532-32.09,71.532-71.533
		S350.742,240.185,311.298,240.185z"/>
	<path d="M124.002,152.381H0.419c6.743,27.893,31.841,48.653,61.792,48.653S117.26,180.273,124.002,152.381z"/>
	<path d="M189.384,201.034c29.95,0,55.049-20.761,61.791-48.653H127.593C134.335,180.273,159.434,201.034,189.384,201.034z"/>
	<path d="M392.882,372.087c-5.988,8.071-13.142,15.225-21.213,21.213l71.348,71.349l21.213-21.213L392.882,372.087z"/>
	<path d="M209.765,311.717c0-41.431,24.947-77.139,60.606-92.909c-6.289-3.586-12.127-7.877-17.4-12.771
		c-16.705,15.504-39.06,24.996-63.587,24.996s-46.881-9.492-63.587-24.996c-16.705,15.504-39.06,24.996-63.587,24.996
		c-11.846,0-23.183-2.22-33.624-6.256V394h223.299C226.387,375.537,209.765,345.534,209.765,311.717z"/>
	<rect x="68.536" width="241.696" height="39.419"/>
	<path d="M316.558,201.034c29.95,0,55.049-20.761,61.791-48.653H254.766C261.509,180.273,286.607,201.034,316.558,201.034z"/>
</g>
<g>
</g>
<g>
</g>
<g>
</g>
<g>
</g>
<g>
</g>
<g>
</g>
<g>
</g>
<g>
</g>
<g>
</g>
<g>
</g>
<g>
</g>
<g>
</g>
<g>
</g>
<g>
</g>
<g>
</g>
</svg>
